<?xml version="1.0" standalone="no"?>
<!DOCTYPE svg PUBLIC "-//W3C//DTD SVG 1.1//EN" "http://www.w3.org/Graphics/SVG/1.1/DTD/svg11.dtd" >
<svg xmlns="http://www.w3.org/2000/svg">
<metadata></metadata>
<defs>
<font id="hk_groteskmedium" horiz-adv-x="1167" >
<font-face units-per-em="2048" ascent="1434" descent="-614" />
<missing-glyph horiz-adv-x="559" />
<glyph unicode="&#xfb01;" horiz-adv-x="1017" d="M176 0v834h-149v165h151q0 92 21 168t65 137.5t120 95.5t179 34q195 0 311 -119l-98 -144q-47 48 -94.5 72.5t-112.5 24.5q-59 0 -100.5 -20t-64 -58t-32.5 -84.5t-10 -106.5h529v-999h-178v834h-351v-834h-186z" />
<glyph unicode="&#xfb02;" horiz-adv-x="1048" d="M879 -20q-79 0 -122.5 56.5t-43.5 164.5v1011q-65 58 -162 58q-95 0 -142 -39t-47 -123v-109h191v-165h-191v-834h-186v834h-149v165h151v119q0 148 103.5 232t271.5 84q178 0 340 -146v-1073q0 -61 61 -61q12 0 27 2t24 4l9 2v-162q-80 -20 -135 -20z" />
<glyph horiz-adv-x="0" />
<glyph horiz-adv-x="682" />
<glyph unicode=" "  horiz-adv-x="559" />
<glyph unicode="&#x09;" horiz-adv-x="559" />
<glyph unicode="&#xa0;" horiz-adv-x="559" />
<glyph unicode="!" horiz-adv-x="548" d="M203 401l-29 1035h201l-29 -1035h-143zM162 0v223h225v-223h-225z" />
<glyph unicode="&#x22;" horiz-adv-x="708" d="M113 934v479h163v-479h-163zM432 934v479h164v-479h-164z" />
<glyph unicode="#" horiz-adv-x="1478" d="M295 0l90 428h-238v137h267l61 303h-246v140h275l94 426h150l-95 -437h291l92 437h150l-92 -428h237v-138h-266l-61 -303h245v-139h-274l-92 -426h-150l92 436h-290l-91 -436h-149zM563 565h291l61 303h-290z" />
<glyph unicode="$" horiz-adv-x="1097" d="M477 -246v234q-162 23 -277.5 123t-142.5 264l193 47q13 -125 101.5 -191.5t217.5 -66.5q124 0 193 56.5t69 170.5q0 64 -37.5 114t-97.5 83.5t-132 64t-144.5 65.5t-132.5 78t-97.5 112t-37.5 157q0 146 92 243.5t233 121.5v229h148v-227q230 -26 342 -226l-158 -98 q-40 75 -107 114.5t-145 39.5q-85 0 -146 -51.5t-61 -131.5q0 -48 23.5 -87.5t62.5 -67.5t90 -53t107.5 -48.5t113 -49t107.5 -60t90 -76.5t62.5 -103t23.5 -135q0 -176 -114.5 -288.5t-290.5 -124.5v-232h-148z" />
<glyph unicode="%" horiz-adv-x="1527" d="M356 788q-58 0 -105 21.5t-76 55t-48.5 78t-27 86.5t-7.5 83t7.5 83t26.5 86.5t47 78t74 55t103 21.5q65 0 116.5 -29t82.5 -76.5t47 -104t16 -116.5q0 -80 -26 -151t-86.5 -121t-143.5 -50zM293 -6l768 1433h164l-768 -1433h-164zM352 920q58 0 89.5 58t31.5 134 q0 77 -32 134t-91 57t-91 -57t-32 -134q0 -78 31.5 -135t93.5 -57zM1184 -4q-72 0 -126 32t-82.5 83.5t-42 104.5t-13.5 106q0 42 7.5 84.5t26.5 86.5t47 77.5t74 55t103 21.5q65 0 117 -29t82.5 -77t46.5 -104.5t16 -117.5q0 -59 -15.5 -115t-46 -103t-81 -76t-113.5 -29z M1182 127q56 0 87 59t31 136q0 79 -31.5 135.5t-90.5 56.5t-91 -56.5t-32 -135.5t32.5 -137t94.5 -58z" />
<glyph unicode="&#x26;" horiz-adv-x="1230" d="M1153 -63l-199 225q-96 -98 -204.5 -140t-241.5 -42q-87 0 -161.5 20.5t-134.5 62t-94 110.5t-34 159q0 66 34.5 134.5t76 114t101 92t83 61.5t49.5 30q-184 184 -184 344q0 146 107 234t257 88q141 0 240.5 -92t99.5 -230q0 -40 -14.5 -81.5t-34 -74t-50.5 -67 t-53.5 -56t-54.5 -46t-41 -30.5l-24 -16l254 -293q18 36 33 98t21 106l5 44l176 -16q0 -10 -9 -64t-36.5 -149t-64.5 -160l229 -258zM567 846q92 64 137 110q80 83 80 152q0 67 -52 112.5t-120 45.5q-81 0 -137.5 -42t-56.5 -118q0 -17 4.5 -35.5t13 -37.5t18 -37t22 -36 t23.5 -33t23.5 -30t20 -23.5t15.5 -17.5zM512 143q201 0 328 142l-308 358q-274 -183 -274 -313q0 -67 36 -110.5t90.5 -60t127.5 -16.5z" />
<glyph unicode="'" horiz-adv-x="348" d="M92 963v479h164v-479h-164z" />
<glyph unicode="(" horiz-adv-x="630" d="M354 -70q-110 116 -175.5 341.5t-65.5 433.5q0 235 61 438t176 338h166q-252 -325 -252 -779q0 -230 61.5 -418t188.5 -354h-160z" />
<glyph unicode=")" horiz-adv-x="630" d="M115 -70q252 328 252 775q0 215 -65 415.5t-189 360.5h166q116 -132 177.5 -333.5t61.5 -440.5q0 -210 -66.5 -436t-175.5 -341h-161z" />
<glyph unicode="*" horiz-adv-x="778" d="M262 844l-121 82l168 182l-241 35l47 135l221 -92l-31 227h148l-29 -227l221 92l45 -135l-239 -35l165 -182l-118 -82l-119 221z" />
<glyph unicode="+" horiz-adv-x="1282" d="M569 106v447h-456v143h456v447h144v-447h456v-143h-456v-447h-144z" />
<glyph unicode="," horiz-adv-x="460" d="M76 -225l100 489h232l-211 -489h-121z" />
<glyph unicode="-" horiz-adv-x="890" d="M174 584v143h543v-143h-543z" />
<glyph unicode="." horiz-adv-x="413" d="M98 0v223h217v-223h-217z" />
<glyph unicode="/" horiz-adv-x="942" d="M-4 -430l766 1946h184l-766 -1946h-184z" />
<glyph unicode="0" horiz-adv-x="1200" d="M614 -20q-119 0 -215 46.5t-156.5 120.5t-101 172t-57 194t-16.5 194q0 99 16.5 196t56 194.5t98.5 171.5t152.5 120.5t208.5 46.5q107 0 197.5 -41.5t153.5 -112t107.5 -164.5t65.5 -198.5t21 -214.5q0 -109 -21 -213t-64.5 -197t-105 -163t-149.5 -111t-191 -41z M608 164q70 0 127.5 35t94 90.5t61 128.5t35 145.5t10.5 145.5q0 96 -18 186.5t-55.5 171.5t-105.5 130.5t-157 49.5q-72 0 -130.5 -33.5t-96 -87.5t-63 -125.5t-36 -144.5t-10.5 -149q0 -75 10.5 -148t36.5 -145.5t64 -127t98.5 -88.5t134.5 -34z" />
<glyph unicode="1" horiz-adv-x="782" d="M393 0v1059h-323v158h172q76 0 120 44.5t44 118.5v33h186v-1413h-199z" />
<glyph unicode="2" horiz-adv-x="1142" d="M57 0v166q115 73 253.5 178.5t240.5 208.5q127 134 188.5 238.5t61.5 224.5q0 111 -60.5 175t-169.5 64q-119 0 -187.5 -90.5t-74.5 -236.5l-196 14q0 216 124.5 353t333.5 137q196 0 315.5 -114t119.5 -304q0 -269 -332 -586q-67 -67 -131.5 -120.5t-97.5 -76.5t-85 -57 h715v-174h-1018z" />
<glyph unicode="3" horiz-adv-x="1138" d="M545 -20q-102 0 -191 28t-158 81t-109 138.5t-40 192.5l189 14q0 -129 88.5 -202.5t220.5 -73.5q128 0 218.5 68t90.5 188q0 121 -82 184.5t-209 63.5h-117v176h117q98 0 155.5 53.5t57.5 150.5q0 96 -67.5 153.5t-167.5 57.5q-103 0 -171 -62.5t-69 -166.5l-186 16 q0 121 58.5 212t154 136.5t213.5 45.5q114 0 210 -43t156 -130t60 -202q0 -89 -39.5 -167t-110.5 -128q218 -94 225 -352q0 -85 -26 -156t-72 -121.5t-108.5 -85.5t-136 -52t-154.5 -17z" />
<glyph unicode="4" horiz-adv-x="1159" d="M690 0v358h-653v115l678 940h172v-876h225v-179h-225v-358h-197zM283 537h407v573z" />
<glyph unicode="5" horiz-adv-x="1148" d="M590 -20q-176 0 -311 117t-173 290l183 55q11 -54 32.5 -102t56.5 -91.5t89.5 -69t122.5 -25.5q83 0 150 47t102 118.5t35 149.5q0 126 -77 213.5t-210 87.5q-78 0 -149.5 -38.5t-112.5 -104.5l-176 61l129 725h737v-178h-582l-65 -375q122 84 256 84q186 0 320 -140.5 t134 -336.5q0 -96 -39.5 -185.5t-105.5 -155.5t-157 -106t-189 -40z" />
<glyph unicode="6" horiz-adv-x="1171" d="M614 -20q-202 0 -344.5 139.5t-142.5 337.5q0 133 72 245l417 711h224l-310 -500q65 9 86 9q203 0 345.5 -132t142.5 -329q0 -127 -62 -236.5t-175.5 -177t-252.5 -67.5zM616 162q121 0 207 87t86 210q0 124 -85.5 211.5t-207.5 87.5q-123 0 -208.5 -87t-85.5 -212 q0 -123 85.5 -210t208.5 -87z" />
<glyph unicode="7" horiz-adv-x="1030" d="M176 0l600 1235h-729v178h967v-100l-619 -1313h-219z" />
<glyph unicode="8" horiz-adv-x="1187" d="M592 -20q-99 0 -187 26t-157 76.5t-109.5 132t-40.5 184.5q0 120 61 215t169 148q-75 53 -116.5 131t-41.5 168q0 87 35 158.5t93.5 117.5t135 71.5t160.5 25.5t160.5 -25.5t135 -71.5t93.5 -117.5t35 -158.5q0 -91 -42 -169t-116 -130q109 -53 169.5 -147.5t60.5 -215.5 q0 -103 -40.5 -185t-110.5 -132t-158.5 -76t-188.5 -26zM598 831q99 0 165 57.5t66 153.5q0 98 -66.5 156.5t-166.5 58.5q-94 0 -161.5 -54.5t-67.5 -147.5q0 -101 63.5 -162.5t167.5 -61.5zM592 152q127 0 213 68.5t86 191.5t-84.5 190.5t-214.5 67.5q-131 0 -215 -67.5 t-84 -190.5t86.5 -191.5t212.5 -68.5z" />
<glyph unicode="9" horiz-adv-x="1159" d="M344 0l307 500q-58 -8 -86 -8q-203 0 -345 131.5t-142 328.5q0 127 62 237t175 177.5t252 67.5q202 0 345 -140t143 -338q0 -133 -72 -245l-418 -711h-221zM565 655q123 0 209 87t86 212q0 123 -86 210t-209 87q-121 0 -207 -87t-86 -210q0 -124 85.5 -211.5t207.5 -87.5 z" />
<glyph unicode=":" horiz-adv-x="409" d="M92 731v223h225v-223h-225zM92 0v223h225v-223h-225z" />
<glyph unicode=";" horiz-adv-x="491" d="M174 731v223h225v-223h-225zM76 -225l100 489h232l-211 -489h-121z" />
<glyph unicode="&#x3c;" horiz-adv-x="1234" d="M1034 162l-936 512l936 512l82 -144l-706 -368l706 -369z" />
<glyph unicode="=" horiz-adv-x="1095" d="M154 766v166h788v-166h-788zM154 412v166h788v-166h-788z" />
<glyph unicode="&#x3e;" horiz-adv-x="1234" d="M201 162l-82 143l706 369l-706 368l82 144l936 -512z" />
<glyph unicode="?" horiz-adv-x="1032" d="M434 397v193q0 62 18.5 108.5t48 73.5t65 48.5t71 41t65 43t48 62.5t18.5 92q0 106 -69.5 159.5t-182.5 53.5q-114 0 -181.5 -62.5t-68.5 -177.5h-174q1 123 56 215t148 139t212 48q119 0 215.5 -42t156.5 -129.5t60 -207.5q0 -71 -19 -126.5t-48.5 -89.5t-66 -60.5 t-73 -46t-66 -38.5t-48.5 -45.5t-19 -60.5v-191h-166zM408 0v223h225v-223h-225z" />
<glyph unicode="@" horiz-adv-x="2002" d="M1010 -348q-183 0 -348.5 71t-285.5 190.5t-190.5 284.5t-70.5 345t71 344.5t191 284t285.5 190t347.5 70.5q183 0 348.5 -71t285.5 -190.5t190.5 -285t70.5 -346.5q0 -87 -16 -170.5t-52.5 -162t-89 -137.5t-132 -94.5t-175.5 -35.5q-117 0 -187 71.5t-65 184.5 q-58 -66 -139.5 -102t-169.5 -36q-103 0 -177.5 55t-108.5 139t-34 185q0 83 19.5 168t59.5 164.5t95.5 141.5t134.5 99.5t170 37.5q85 0 157 -45t101 -121l23 116h170q-17 -85 -59 -248.5t-66.5 -294.5t-24.5 -245q0 -48 29 -74t78 -26q64 0 115.5 27.5t84.5 72t55.5 103 t32 116.5t9.5 117q0 196 -99 363.5t-268 265.5t-366 98q-148 0 -283.5 -58t-234 -155.5t-157.5 -231.5t-59 -280t59 -280t157.5 -231.5t234 -155.5t283.5 -58q115 0 237 39l60 -158q-145 -51 -297 -51zM897 223q81 0 148 42.5t108 110t63.5 145.5t22.5 155q0 95 -45 150 t-137 55q-81 0 -148 -42t-108 -109t-63.5 -145t-22.5 -155q0 -95 45 -151t137 -56z" />
<glyph unicode="A" horiz-adv-x="1314" d="M37 0l545 1413h153l543 -1413h-217l-109 307h-587l-109 -307h-219zM432 483h455l-228 635z" />
<glyph unicode="B" horiz-adv-x="1216" d="M184 0v1413h432q85 0 164.5 -23.5t144.5 -68.5t104.5 -119.5t39.5 -167.5q0 -91 -47 -165t-123 -119q104 -42 172 -141t68 -212q0 -91 -38.5 -167.5t-102.5 -126t-144.5 -76.5t-167.5 -27h-502zM381 815h248q109 0 178.5 49t69.5 154q0 99 -73.5 157t-182.5 58h-240v-418 zM381 186h309q109 0 180.5 62t71.5 168q0 101 -73 162t-183 61h-305v-453z" />
<glyph unicode="C" horiz-adv-x="1443" d="M772 -20q-163 0 -291 58t-206.5 159t-119 230.5t-40.5 279.5q0 120 24.5 227t77 199.5t128.5 159.5t185 105t240 38q202 0 355.5 -100t236.5 -289l-186 -76q-41 144 -148.5 211t-259.5 67q-93 0 -169.5 -28t-129.5 -77t-89 -116.5t-52.5 -145.5t-16.5 -165 q0 -117 27 -214.5t81.5 -174t144.5 -119.5t208 -43q147 0 248.5 66.5t159.5 213.5l184 -75q-81 -189 -235.5 -290t-356.5 -101z" />
<glyph unicode="D" horiz-adv-x="1374" d="M174 0v1413h383q350 0 535.5 -184.5t185.5 -532.5q-2 -334 -189 -515t-534 -181h-381zM373 182h157q124 0 222 30t172 91.5t113.5 164t39.5 239.5q0 266 -128 395t-396 129h-180v-1049z" />
<glyph unicode="E" horiz-adv-x="1224" d="M180 0v1413h928v-180h-727v-436h659v-181h-659v-432h727v-184h-928z" />
<glyph unicode="F" horiz-adv-x="1155" d="M180 0v1413h948v-180h-747v-436h659v-181h-659v-616h-201z" />
<glyph unicode="G" horiz-adv-x="1538" d="M772 -20q-163 0 -291 58t-206.5 159t-119 230.5t-40.5 279.5q0 120 24.5 227t77 199.5t128.5 159.5t185 105t240 38q202 0 355.5 -100t236.5 -289l-182 -76q-56 139 -162.5 211.5t-249.5 72.5q-93 0 -169.5 -28.5t-129.5 -78.5t-89 -118.5t-52.5 -147t-16.5 -165.5 q0 -117 27 -215t81.5 -175.5t144.5 -121t208 -43.5q171 0 291.5 112.5t132.5 303.5h-324v159h512v-737h-159l-13 233q-62 -113 -174 -183t-266 -70z" />
<glyph unicode="H" horiz-adv-x="1433" d="M180 0v1413h201v-616h672v616h200v-1413h-200v616h-672v-616h-201z" />
<glyph unicode="I" horiz-adv-x="546" d="M174 0v1413h199v-1413h-199z" />
<glyph unicode="J" horiz-adv-x="1062" d="M473 -20q-197 0 -317 124t-133 310l194 26q4 -57 20.5 -105.5t46.5 -88.5t78.5 -63t110.5 -23q75 0 125.5 24t77 71t37 104.5t10.5 136.5v737h-533v180h732v-909q0 -118 -25 -211t-77 -164.5t-140 -110t-207 -38.5z" />
<glyph unicode="K" horiz-adv-x="1415" d="M180 0v1413h201v-788l741 788h262l-546 -567l569 -846h-242l-465 711l-319 -332v-379h-201z" />
<glyph unicode="L" horiz-adv-x="1036" d="M180 0v1413h201v-1229h604v-184h-805z" />
<glyph unicode="M" horiz-adv-x="1738" d="M180 0v1413h295l393 -1079l396 1079h295v-1413h-197v1180l-389 -1057h-207l-391 1057v-1180h-195z" />
<glyph unicode="N" horiz-adv-x="1394" d="M180 0v1413h236l602 -1126v1126h196v-1413h-237l-602 1126v-1126h-195z" />
<glyph unicode="O" horiz-adv-x="1525" d="M764 -20q-131 0 -240 38t-185 105t-128.5 159t-77 199t-24.5 226t24.5 226t77 199t128.5 159t185 105t240 38q162 0 289 -58t205.5 -159.5t118.5 -230.5t40 -279t-40 -279t-118.5 -230.5t-205.5 -159.5t-289 -58zM764 160q95 0 171 29.5t127.5 80t86 120.5t50 149 t15.5 168q0 112 -25.5 207.5t-77.5 173t-141 121.5t-206 44q-95 0 -171.5 -29t-128 -79.5t-86 -120.5t-50 -149t-15.5 -168t15.5 -168t50 -149t86 -120.5t128 -80t171.5 -29.5z" />
<glyph unicode="P" horiz-adv-x="1085" d="M180 0v1413h416q213 0 343 -107t130 -296q0 -187 -129.5 -291.5t-343.5 -104.5h-217v-614h-199zM379 797h217q136 0 205 54t69 159t-69.5 162t-204.5 57h-217v-432z" />
<glyph unicode="Q" horiz-adv-x="1525" d="M1346 -106l-201 198q-156 -112 -381 -112q-131 0 -240 38t-185 105t-128.5 159t-77 199t-24.5 226t24.5 226t77 199t128.5 159t185 105t240 38q130 0 238.5 -38.5t184.5 -105.5t128.5 -159t77 -199t24.5 -225q0 -304 -147 -498l198 -197zM764 164q142 0 242 65l-197 193 l125 119l194 -191q91 149 91 357q0 89 -16 167.5t-51 148t-87.5 119t-129 78.5t-171.5 29q-118 0 -207.5 -43.5t-143 -119.5t-80 -171.5t-26.5 -207.5t26.5 -207.5t80 -172t143 -120t207.5 -43.5z" />
<glyph unicode="R" horiz-adv-x="1191" d="M180 -2v1413h428q129 0 233.5 -47t167 -140t62.5 -216q0 -134 -80 -231.5t-211 -133.5l387 -645h-229l-356 620h-201v-620h-201zM383 793h250q109 5 175 61.5t66 153.5q0 105 -72 165t-192 60h-227v-440z" />
<glyph unicode="S" horiz-adv-x="1118" d="M580 -16q-124 0 -230.5 42t-184 133t-97.5 218l194 53q13 -127 101.5 -194.5t216.5 -67.5q123 0 192.5 57t69.5 170q0 49 -23.5 89.5t-62.5 69.5t-90 54.5t-107.5 49.5t-113 49.5t-107.5 59t-90 73.5t-62.5 97.5t-23.5 127.5q0 164 118 266.5t287 102.5q281 0 412 -234 l-160 -100q-41 77 -107.5 118.5t-144.5 41.5q-84 0 -144.5 -52.5t-60.5 -132.5q0 -59 37.5 -105.5t97.5 -77.5t132.5 -61t145 -66t132.5 -81.5t97.5 -118t37.5 -166.5q0 -188 -132 -301.5t-330 -113.5z" />
<glyph unicode="T" horiz-adv-x="1159" d="M479 0v1239h-463v174h1127v-174h-463v-1239h-201z" />
<glyph unicode="U" horiz-adv-x="1320" d="M662 -20q-133 0 -232.5 42.5t-160 122t-90 185.5t-29.5 239v844h198v-833q0 -97 15 -168.5t50 -128t97.5 -85t151.5 -28.5q90 0 152.5 28.5t97.5 85t50 128t15 168.5v833h199v-833q0 -137 -30 -245.5t-91 -188.5t-160.5 -123t-232.5 -43z" />
<glyph unicode="V" horiz-adv-x="1298" d="M569 0l-544 1413h215l409 -1116l412 1116h213l-543 -1413h-162z" />
<glyph unicode="W" horiz-adv-x="1929" d="M432 0l-407 1413h206l320 -1141l336 1018h155l336 -1018l320 1141h207l-408 -1413h-205l-327 971l-328 -971h-205z" />
<glyph unicode="X" horiz-adv-x="1267" d="M37 0l469 707l-467 706h237l359 -569l356 569h238l-467 -706l469 -707h-238l-360 559l-359 -559h-237z" />
<glyph unicode="Y" horiz-adv-x="1337" d="M569 0v553l-553 860h234l420 -674l417 674h234l-553 -860v-553h-199z" />
<glyph unicode="Z" horiz-adv-x="1277" d="M80 0v147l848 1086h-803v180h1067v-156l-846 -1075h846v-182h-1112z" />
<glyph unicode="[" horiz-adv-x="720" d="M190 -123v1657h392v-121h-236v-1413h236v-123h-392z" />
<glyph unicode="\" horiz-adv-x="942" d="M762 -430l-766 1946h184l766 -1946h-184z" />
<glyph unicode="]" horiz-adv-x="720" d="M139 -123v123h236v1413h-236v121h391v-1657h-391z" />
<glyph unicode="^" horiz-adv-x="1183" d="M203 825l389 633l391 -633h-192l-199 320l-197 -320h-192z" />
<glyph unicode="_" horiz-adv-x="993" d="M92 -143v143h809v-143h-809z" />
<glyph unicode="a" horiz-adv-x="1069" d="M430 -20q-139 0 -237.5 84.5t-98.5 220.5q0 80 28.5 138.5t81 92.5t120 50t151.5 16h289q0 131 -55.5 199.5t-180.5 68.5q-78 0 -144 -41t-103 -100l-144 104q75 102 171.5 152.5t228.5 50.5q191 0 298 -109.5t107 -294.5v-612h-151l-19 162q-64 -96 -145.5 -139 t-196.5 -43zM471 145q121 0 207 89t86 202h-275q-89 0 -144.5 -41.5t-55.5 -109.5t51.5 -104t130.5 -36z" />
<glyph unicode="b" horiz-adv-x="1185" d="M680 -20q-194 0 -301 141v-121h-195v1413h195v-534q107 141 301 141q128 0 223 -71.5t142 -188t47 -260.5t-47 -260.5t-142 -188t-223 -71.5zM631 152q89 0 150.5 48t89.5 125t28 175q0 151 -68.5 251.5t-199.5 100.5q-88 0 -149.5 -50t-88 -127t-26.5 -175 q0 -153 66.5 -250.5t197.5 -97.5z" />
<glyph unicode="c" horiz-adv-x="1015" d="M557 -20q-111 0 -200 42.5t-144 115.5t-84 165t-29 195t28.5 194.5t83 164.5t143.5 116t200 43q138 0 245 -73t163 -202l-183 -71q-22 82 -82 128t-143 46q-69 0 -121.5 -30t-82 -80.5t-44 -110t-14.5 -125.5q0 -67 14 -126t43.5 -110t82 -80.5t122.5 -29.5q83 0 143 47 t82 127l170 -68q-46 -132 -149.5 -205t-243.5 -73z" />
<glyph unicode="d" horiz-adv-x="1187" d="M510 -20q-128 0 -223.5 71.5t-143 188.5t-47.5 260t47.5 260t143 188.5t223.5 71.5q194 0 301 -141v534h190v-1413h-190v121q-107 -141 -301 -141zM557 154q132 0 197 96.5t65 249.5q0 152 -65 249t-197 97q-131 0 -198.5 -97.5t-67.5 -248.5q0 -152 67.5 -249t198.5 -97 z" />
<glyph unicode="e" horiz-adv-x="1060" d="M565 -12q-115 0 -206.5 41t-149 111t-87.5 160.5t-30 193.5t28.5 194.5t83 164.5t143.5 116t200 43q99 0 177 -29t127 -77.5t80.5 -117t44.5 -141.5t13 -158l-4 -53h-692q6 -122 75.5 -199t194.5 -77q87 0 149.5 22t118.5 78l130 -108q-83 -87 -178 -125.5t-218 -38.5z M293 582h514q-6 124 -71 195t-189 71q-116 0 -180 -74t-74 -192z" />
<glyph unicode="f" horiz-adv-x="710" d="M233 0v834h-182v163h182v162q0 129 84.5 202t210.5 73q88 0 168 -39l-53 -156q-39 25 -94 25q-54 0 -88.5 -29.5t-34.5 -79.5v-156h264v-165h-264v-834h-193z" />
<glyph unicode="g" horiz-adv-x="1060" d="M557 -459q-65 0 -126.5 9.5t-124.5 33t-109.5 59.5t-75.5 93.5t-29 130.5q0 53 19 110l153 64q-75 39 -114 102t-41 115q0 108 112 225q-47 83 -47 179q0 157 109 253.5t272 96.5q96 0 182 -39l166 149l109 -143l-148 -107q70 -93 70 -213q0 -160 -108 -255t-271 -95 q-122 0 -213 56q-59 -59 -59 -109q0 -21 11 -37.5t34.5 -26.5t48.5 -16.5t65 -9.5t70.5 -4t77.5 -2q80 -2 138 -9t115.5 -25t93 -48.5t57.5 -81.5t22 -121q0 -90 -34.5 -155.5t-98 -104t-144.5 -56.5t-182 -18zM555 463q86 0 138 55t52 141q0 88 -51.5 145.5t-138.5 57.5 q-86 0 -138 -57.5t-52 -145.5q0 -86 52 -141t138 -55zM559 -293q57 0 104 7t90 23.5t67 48.5t24 77q0 51 -35.5 80t-88.5 38t-136 9q-125 0 -178 6l-152 -119q1 -16 9.5 -35t31 -44t54.5 -44.5t87 -33t123 -13.5z" />
<glyph unicode="h" horiz-adv-x="1165" d="M176 0v1413h193v-551q52 74 130 115t165 41q76 0 137.5 -23t102.5 -61.5t68.5 -92.5t39.5 -114t12 -127v-600h-190v584q0 250 -189 250q-109 0 -189.5 -77t-86.5 -182v-575h-193z" />
<glyph unicode="i" horiz-adv-x="540" d="M168 1206v207h209v-207h-209zM176 0v999h191v-999h-191z" />
<glyph unicode="j" horiz-adv-x="534" d="M164 1200v217h209v-217h-209zM92 -438q-35 0 -75.5 7.5t-63.5 14.5l-23 8l45 158q60 -16 109 -16t68.5 29t19.5 83v1153h190v-1130q0 -140 -67 -223.5t-203 -83.5z" />
<glyph unicode="k" horiz-adv-x="1083" d="M180 0v1413h191v-899l415 485h244l-348 -376l401 -623h-223l-303 502l-186 -209v-293h-191z" />
<glyph unicode="l" horiz-adv-x="575" d="M365 -20q-101 0 -144 54t-43 167v1212h191v-1202q0 -20 14.5 -42t50.5 -22q16 0 36 2.5t32 5.5l12 3v-158q-77 -20 -149 -20z" />
<glyph unicode="m" horiz-adv-x="1734" d="M178 0v999h191v-143q39 76 109.5 119t152.5 43q210 0 299 -180q50 88 132.5 133t184.5 45q92 0 162.5 -33.5t112 -92t62 -130t20.5 -154.5v-606h-191v582q0 54 -9 98t-29.5 83t-59 61t-92.5 22q-110 0 -174 -83.5t-64 -203.5v-559h-190v586q0 53 -9 96.5t-29 82t-58.5 60 t-92.5 21.5q-109 0 -173 -83.5t-64 -203.5v-559h-191z" />
<glyph unicode="n" d="M176 0v999h193v-141q51 75 133 116.5t170 41.5q92 0 162 -33.5t111 -92t61 -130t20 -154.5v-606h-192v582q0 254 -189 254q-113 0 -194.5 -83t-81.5 -196v-557h-193z" />
<glyph unicode="o" d="M584 -20q-216 0 -356 149.5t-140 366.5t140 366.5t356 149.5t355.5 -149.5t139.5 -366.5t-139.5 -366.5t-355.5 -149.5zM584 145q74 0 130.5 28.5t89 78.5t48.5 111t16 133t-16 133t-48.5 110.5t-89 78t-130.5 28.5t-130.5 -28.5t-89.5 -78t-49 -110.5t-16 -133t16 -133 t49 -111t89.5 -78.5t130.5 -28.5z" />
<glyph unicode="p" horiz-adv-x="1173" d="M178 -438v1437h193v-120q107 141 301 141q96 0 175 -41.5t130 -112.5t78.5 -165t27.5 -201t-27.5 -201t-78.5 -165t-130 -112.5t-175 -41.5q-194 0 -301 141v-559h-193zM623 152q89 0 150.5 48t89.5 125t28 175q0 151 -68.5 250.5t-199.5 99.5q-88 0 -149.5 -49 t-88.5 -126t-27 -175q0 -152 67 -250t198 -98z" />
<glyph unicode="q" horiz-adv-x="1183" d="M811 -438v559q-107 -141 -301 -141q-128 0 -223 71.5t-142 188t-47 260.5t47 260.5t142 188t223 71.5q194 0 301 -141v120h190v-1437h-190zM559 152q131 0 196.5 97.5t65.5 250.5q0 98 -26 174.5t-87 126t-149 49.5q-131 0 -199.5 -99.5t-68.5 -250.5q0 -98 28 -175 t89.5 -125t150.5 -48z" />
<glyph unicode="r" horiz-adv-x="772" d="M164 0v999h190v-163q37 84 110 131t152 47q49 0 102 -14.5t89 -41.5l-78 -157q-49 41 -123 41q-118 0 -186 -114.5t-68 -287.5v-440h-188z" />
<glyph unicode="s" horiz-adv-x="894" d="M459 -20q-141 0 -248.5 76t-142.5 186l155 73q26 -73 86 -122.5t146 -49.5q82 0 133 38.5t51 105.5q0 44 -29 73.5t-75 45.5t-102 29.5t-112 32.5t-102 47t-75 81t-29 127q0 133 99.5 212t234.5 79q122 0 211 -57.5t139 -147.5l-142 -80q-68 125 -208 125q-68 0 -111 -31 t-43 -86q0 -38 29 -63t75.5 -40t103 -28.5t113 -34.5t103 -52t75.5 -87.5t29 -134.5q0 -100 -53.5 -174t-134.5 -108.5t-176 -34.5z" />
<glyph unicode="t" horiz-adv-x="704" d="M487 -20q-135 0 -204.5 77t-69.5 211v566h-158v165h158v236l186 154v-390h258v-165h-258v-568q0 -119 107 -119q37 0 71.5 6.5t50.5 12.5l15 6v-168q-64 -24 -156 -24z" />
<glyph unicode="u" horiz-adv-x="1175" d="M510 -23q-75 0 -135.5 23.5t-101 64t-68 96t-39.5 117t-12 130.5v591h192v-587q0 -262 186 -262q113 0 196 86.5t83 199.5v563h193v-999h-193v145q-42 -70 -124 -119t-177 -49z" />
<glyph unicode="v" horiz-adv-x="985" d="M412 0l-387 999h206l261 -751l264 751h205l-388 -999h-161z" />
<glyph unicode="w" horiz-adv-x="1445" d="M328 -2l-293 1001h203l188 -727l213 727h168l211 -725l190 725h203l-293 -999h-178l-217 743l-219 -745h-176z" />
<glyph unicode="x" horiz-adv-x="970" d="M33 0l338 504l-338 495h231l221 -354l222 354h233l-340 -495l340 -504h-233l-222 360l-221 -360h-231z" />
<glyph unicode="y" horiz-adv-x="1019" d="M244 -430l172 446l-385 983h209l274 -763l272 763h209l-551 -1429h-200z" />
<glyph unicode="z" horiz-adv-x="935" d="M55 0v135l584 699h-555v165h797v-147l-574 -690h574v-162h-826z" />
<glyph unicode="{" horiz-adv-x="778" d="M487 -135q-104 0 -168 90q-34 48 -34 160v364q0 71 -131 115v133q68 21 99.5 55.5t31.5 94.5v426q0 115 53 174t172 59h51q24 0 64 -4v-119q-58 8 -80 8q-50 0 -72 -12t-22 -39v-508q0 -73 -41 -122.5t-123 -86.5q164 -64 164 -170v-362q0 -141 118 -141q16 0 56 8v-121 q-10 0 -32 -1t-34 -1h-72z" />
<glyph unicode="|" horiz-adv-x="520" d="M190 -512v2046h140v-2046h-140z" />
<glyph unicode="}" horiz-adv-x="778" d="M219 -135q-12 0 -33.5 1t-31.5 1v121q40 -8 55 -8q119 0 119 141v362q0 107 164 170q-85 38 -124.5 86.5t-39.5 122.5v508q0 27 -22.5 39t-72.5 12q-21 0 -79 -8v119q40 4 63 4h51q119 0 172.5 -59t53.5 -174v-426q0 -60 31.5 -94.5t99.5 -55.5v-133q-131 -44 -131 -115 v-364q0 -114 -35 -160q-64 -90 -168 -90h-72z" />
<glyph unicode="~" horiz-adv-x="954" d="M635 379q-59 0 -111 22.5t-83 49t-69 49t-71 22.5q-48 0 -65 -29.5t-15 -86.5h-129q0 115 54 180t153 65q56 0 103 -14.5t77.5 -34.5t56.5 -40.5t52.5 -35t52.5 -14.5q50 0 68 32t18 101h137q0 -129 -58.5 -197.5t-170.5 -68.5z" />
<glyph unicode="&#xa1;" horiz-adv-x="569" d="M172 776v223h225v-223h-225zM184 -436l29 1034h143l29 -1034h-201z" />
<glyph unicode="&#xa2;" horiz-adv-x="1007" d="M473 -205v187q-93 14 -166.5 62t-119.5 118t-69.5 155.5t-23.5 180.5t23.5 180.5t69.5 156t119.5 118.5t166.5 61v186h139v-186q236 -34 342 -273l-176 -71q-25 89 -84.5 136.5t-148.5 47.5q-70 0 -123 -31t-82.5 -83t-44 -113t-14.5 -129q0 -54 8.5 -104t28 -96.5 t49 -81t75.5 -55t103 -20.5q88 0 148 48.5t85 136.5l162 -68q-83 -240 -328 -276v-187h-139z" />
<glyph unicode="&#xa3;" horiz-adv-x="1134" d="M35 0v147q10 6 26.5 17.5t58.5 47.5t74 72t58.5 86.5t26.5 96.5q0 31 -6.5 70.5t-12.5 63.5l-6 24h-217v157h178q-43 111 -43 240q0 177 109.5 296.5t298.5 119.5q136 0 237 -83t146 -212l-148 -53q-31 88 -92 139t-143 51q-118 0 -184 -69.5t-66 -188.5q0 -55 12 -115 t24 -93l11 -32h473v-157h-434q16 -80 16 -156q0 -57 -16 -110.5t-39 -88t-46 -61.5t-39 -39l-16 -12h811v-158h-1052z" />
<glyph unicode="&#xa4;" horiz-adv-x="1134" d="M188 63l-165 162l196 174q-67 103 -67 230q0 126 67 229l-213 160l166 162l162 -201q104 74 233 74q125 0 234 -74l176 184l166 -162l-228 -145q68 -100 68 -227q0 -126 -68 -230l228 -174l-166 -162l-176 216q-104 -74 -234 -74q-129 0 -233 74zM567 381q104 0 168 68.5 t64 179.5t-64 179.5t-168 68.5t-167.5 -68.5t-63.5 -179.5t63.5 -179.5t167.5 -68.5z" />
<glyph unicode="&#xa5;" horiz-adv-x="1273" d="M551 0v170h-299v145h299v201h-299v146h231l-475 751h203l426 -688l424 688h203l-476 -751h234v-146h-301v-201h301v-145h-301v-170h-170z" />
<glyph unicode="&#xa6;" horiz-adv-x="518" d="M184 731v744h148v-744h-148zM184 -307v727h148v-727h-148z" />
<glyph unicode="&#xa7;" horiz-adv-x="876" d="M457 -18q-157 0 -268 75t-156 222l157 47q54 -183 267 -183q223 0 223 152q0 33 -20.5 56.5t-55 37t-79.5 23.5t-94.5 19.5t-99 22t-94.5 34t-79.5 51.5t-55 79t-20.5 113q0 123 96 209q-94 72 -94 193q0 71 31 129.5t82 95t114.5 56.5t132.5 20q138 0 240 -72t141 -203 l-159 -41q-45 154 -224 154q-82 0 -139 -39.5t-57 -114.5q0 -31 20.5 -53t55 -34.5t79.5 -21.5t94.5 -18.5t99 -22t94.5 -34.5t79.5 -53t55 -81.5t20.5 -115.5q0 -126 -90 -207q90 -69 90 -192q0 -64 -22.5 -115.5t-59.5 -86t-87.5 -58t-105 -33.5t-112.5 -10zM582 549 q98 39 98 147q0 33 -17.5 60t-42.5 43.5t-65 30.5t-70.5 21t-75 16t-63.5 14q-47 -22 -73.5 -61.5t-26.5 -90.5q0 -31 18 -56.5t43.5 -41t66 -30t71.5 -21.5t74.5 -16.5t62.5 -14.5z" />
<glyph unicode="&#xa9;" horiz-adv-x="1718" d="M860 -49q-156 0 -298.5 60t-245 161t-163.5 241t-61 294q0 206 103 379.5t279.5 274.5t385.5 101q208 0 384 -101t279 -275t103 -379q0 -154 -61 -294t-163.5 -241t-244.5 -161t-297 -60zM860 98q98 0 192 31.5t170.5 88.5t134.5 132t90 167.5t32 189.5 q0 162 -84.5 302.5t-227.5 223t-307 82.5q-165 0 -307.5 -82.5t-226.5 -223t-84 -302.5t84 -302.5t226.5 -223.5t307.5 -83zM877 285q-119 0 -204 58.5t-125 152t-40 209.5t40 209.5t125 151.5t204 58q224 0 327 -213l-137 -57q-61 121 -190 121q-111 0 -167.5 -76.5 t-56.5 -193.5q0 -118 54.5 -193.5t166.5 -75.5q132 0 191 121l139 -57q-101 -215 -327 -215z" />
<glyph unicode="&#xaa;" horiz-adv-x="800" d="M319 709q-97 0 -165 59t-68 154q0 107 71.5 159t192.5 52h209q-3 194 -170 194q-108 0 -182 -102l-96 63q57 75 123.5 110.5t158.5 35.5q132 0 206.5 -77t74.5 -206v-428h-107l-4 108q-87 -122 -244 -122zM346 819q86 0 148 63.5t65 143.5h-199q-64 0 -103.5 -27 t-39.5 -77q0 -43 41 -73t88 -30z" />
<glyph unicode="&#xab;" horiz-adv-x="1026" d="M530 172l-393 338l393 340v-182l-188 -158l188 -156v-182zM893 172l-393 338l393 340v-182l-188 -158l188 -156v-182z" />
<glyph unicode="&#xac;" horiz-adv-x="1189" d="M860 291v336h-729v170h907v-506h-178z" />
<glyph unicode="&#xad;" horiz-adv-x="849" d="M82 549v143h686v-143h-686z" />
<glyph unicode="&#xae;" horiz-adv-x="1718" d="M860 -47q-156 0 -298.5 60t-245 161t-163.5 241t-61 294q0 206 103 379.5t279.5 274.5t385.5 101q208 0 384 -101t279 -275t103 -379q0 -154 -61 -294t-163.5 -241t-244.5 -161t-297 -60zM860 92q125 0 241 49.5t200.5 132.5t135 197t50.5 238t-50.5 238t-135 196.5 t-200.5 132t-241 49.5q-168 0 -313 -83.5t-230.5 -225.5t-85.5 -307t85.5 -307.5t230.5 -226t313 -83.5zM602 297v809h311q133 0 202 -63t69 -179q0 -92 -43 -147t-111 -76l199 -344h-170l-176 326h-131v-326h-150zM741 760h172q70 0 102 25t32 79q0 55 -31 79t-103 24h-172 v-207z" />
<glyph unicode="&#xb0;" horiz-adv-x="831" d="M416 848q-126 0 -214.5 85.5t-88.5 207.5t88.5 207.5t214.5 85.5t214.5 -85.5t88.5 -207.5t-88.5 -207.5t-214.5 -85.5zM416 971q74 0 127 50t53 120t-53 120t-127 50t-127 -50t-53 -120t53 -120t127 -50z" />
<glyph unicode="&#xb1;" horiz-adv-x="1282" d="M569 106v447h-456v143h456v447h144v-447h456v-143h-456v-447h-144zM115 -143v143h1052v-143h-1052z" />
<glyph unicode="&#xb5;" horiz-adv-x="1153" d="M143 -266v1265h187v-589q0 -263 190 -263q115 0 199 86t84 201v565h186v-999h-186v139q-43 -66 -123 -114t-176 -48q-103 0 -176 43l-19 -286h-166z" />
<glyph unicode="&#xb6;" horiz-adv-x="1239" d="M532 0v623q-119 0 -220.5 45.5t-166.5 137.5t-65 212t65 212t166.5 137.5t220.5 45.5h170v-1413h-170zM883 0v1413h172v-1413h-172z" />
<glyph unicode="&#xb7;" horiz-adv-x="542" d="M270 678q-57 0 -95 40t-38 97q0 56 38 94.5t95 38.5t96.5 -38t39.5 -95t-39.5 -97t-96.5 -40z" />
<glyph unicode="&#xba;" horiz-adv-x="858" d="M430 711q-151 0 -247.5 105t-96.5 257t96.5 256.5t247.5 104.5q150 0 246 -104.5t96 -256.5t-96 -257t-246 -105zM430 827q102 0 151.5 69.5t49.5 176.5t-49.5 175.5t-151.5 68.5q-104 0 -153.5 -68.5t-49.5 -175.5t49.5 -176.5t153.5 -69.5z" />
<glyph unicode="&#xbb;" horiz-adv-x="1026" d="M137 172v182l187 156l-187 158v182l393 -340zM500 172v182l186 156l-186 158v182l393 -340z" />
<glyph unicode="&#xbf;" horiz-adv-x="1032" d="M399 776v223h226v-223h-226zM522 -434q-119 0 -215 42t-155.5 129.5t-59.5 207.5q0 71 19 126.5t48.5 89.5t66 60.5t73 46t66 38.5t48.5 45.5t19 60.5v190h166v-192q0 -62 -18.5 -108t-48 -73.5t-65 -48.5t-71 -40.5t-65 -43t-48 -63t-18.5 -92.5q0 -106 69 -159.5 t181 -53.5q110 0 180.5 60t71.5 169h174q-1 -119 -58 -208.5t-150.5 -135.5t-209.5 -47z" />
<glyph unicode="&#xc0;" horiz-adv-x="1314" d="M586 1532l-269 295h209l219 -295h-159zM37 0l545 1413h153l543 -1413h-217l-109 307h-587l-109 -307h-219zM432 483h455l-228 635z" />
<glyph unicode="&#xc1;" horiz-adv-x="1314" d="M555 1538l219 289h209l-283 -289h-145zM37 0l545 1413h153l543 -1413h-217l-109 307h-587l-109 -307h-219zM432 483h455l-228 635z" />
<glyph unicode="&#xc2;" horiz-adv-x="1314" d="M332 1511l325 355l328 -355h-168l-160 181l-157 -181h-168zM37 0l545 1413h153l543 -1413h-217l-109 307h-587l-109 -307h-219zM432 483h455l-228 635z" />
<glyph unicode="&#xc3;" horiz-adv-x="1314" d="M813 1550q-58 0 -108 24t-79 52t-66 52t-73 24q-91 0 -88 -137h-129q0 121 55 190.5t158 69.5q64 0 116.5 -24.5t81 -53.5t63.5 -53.5t69 -24.5q50 0 71 38.5t21 111.5h137q0 -130 -59.5 -199.5t-169.5 -69.5zM37 0l545 1413h153l543 -1413h-217l-109 307h-587l-109 -307 h-219zM432 483h455l-228 635z" />
<glyph unicode="&#xc4;" horiz-adv-x="1314" d="M397 1585v180h178v-180h-178zM737 1585v180h178v-180h-178zM37 0l545 1413h153l543 -1413h-217l-109 307h-587l-109 -307h-219zM432 483h455l-228 635z" />
<glyph unicode="&#xc5;" horiz-adv-x="1314" d="M764 1337l514 -1337h-217l-109 307h-587l-109 -307h-219l516 1335q-50 28 -78.5 77.5t-28.5 107.5q0 88 60.5 148.5t148.5 60.5q87 0 149 -60.5t62 -148.5q0 -58 -27.5 -106.5t-74.5 -76.5zM655 1618q-44 0 -71 -27t-27 -71t28 -72.5t70 -28.5q43 0 72 29t29 72 q0 42 -28 70t-73 28zM432 483h455l-228 635z" />
<glyph unicode="&#xc6;" horiz-adv-x="1806" d="M10 0l543 1413h1151v-172h-748v-448h660v-172h-660v-443h748v-178h-940v307h-432l-111 -307h-211zM395 477h369v764h-82z" />
<glyph unicode="&#xc7;" horiz-adv-x="1443" d="M1364 371q-71 -169 -202 -268t-304 -119l-78 -111q187 -51 187 -170q0 -85 -62 -144t-141 -59q-66 0 -116 37t-73 94l109 52q6 -27 27.5 -45.5t52.5 -18.5t55.5 22.5t24.5 55.5q0 56 -82 80l-129 39l90 166q-151 8 -269 69t-191 160.5t-110.5 225t-37.5 270.5 q0 120 24.5 227t77 199.5t128.5 159.5t185 105t240 38q202 0 355.5 -100t236.5 -289l-186 -76q-41 144 -148.5 211t-259.5 67q-93 0 -169.5 -28t-129.5 -77t-89 -116.5t-52.5 -145.5t-16.5 -165q0 -117 27 -214.5t81.5 -174t144.5 -119.5t208 -43q147 0 248.5 66.5 t159.5 213.5z" />
<glyph unicode="&#xc8;" horiz-adv-x="1224" d="M543 1532l-269 295h209l219 -295h-159zM180 0v1413h928v-180h-727v-436h659v-181h-659v-432h727v-184h-928z" />
<glyph unicode="&#xc9;" horiz-adv-x="1224" d="M512 1538l219 289h209l-283 -289h-145zM180 0v1413h928v-180h-727v-436h659v-181h-659v-432h727v-184h-928z" />
<glyph unicode="&#xca;" horiz-adv-x="1224" d="M287 1511l325 355l328 -355h-168l-160 181l-157 -181h-168zM180 0v1413h928v-180h-727v-436h659v-181h-659v-432h727v-184h-928z" />
<glyph unicode="&#xcb;" horiz-adv-x="1224" d="M354 1585v180h178v-180h-178zM694 1585v180h178v-180h-178zM180 0v1413h928v-180h-727v-436h659v-181h-659v-432h727v-184h-928z" />
<glyph unicode="&#xcc;" horiz-adv-x="546" d="M203 1532l-269 295h209l219 -295h-159zM174 0v1413h199v-1413h-199z" />
<glyph unicode="&#xcd;" horiz-adv-x="546" d="M172 1538l219 289h209l-283 -289h-145zM174 0v1413h199v-1413h-199z" />
<glyph unicode="&#xce;" horiz-adv-x="546" d="M-53 1511l325 355l328 -355h-168l-160 181l-157 -181h-168zM174 0v1413h199v-1413h-199z" />
<glyph unicode="&#xcf;" horiz-adv-x="546" d="M14 1585v180h179v-180h-179zM354 1585v180h178v-180h-178zM174 0v1413h199v-1413h-199z" />
<glyph unicode="&#xd0;" horiz-adv-x="1394" d="M174 0v641h-113v143h113v629h379q349 0 537 -185t188 -532q-1 -333 -191 -514.5t-536 -181.5h-377zM367 178h159q124 0 224 30.5t175.5 93.5t116.5 165.5t41 239.5q0 264 -131.5 397t-402.5 133h-182v-453h421v-143h-421v-463z" />
<glyph unicode="&#xd1;" horiz-adv-x="1394" d="M852 1550q-58 0 -108 24t-79 52t-66 52t-73 24q-91 0 -88 -137h-129q0 121 55 190.5t158 69.5q64 0 116.5 -24.5t81 -53.5t63.5 -53.5t69 -24.5q50 0 71 38.5t21 111.5h137q0 -130 -59.5 -199.5t-169.5 -69.5zM180 0v1413h236l602 -1126v1126h196v-1413h-237l-602 1126 v-1126h-195z" />
<glyph unicode="&#xd2;" horiz-adv-x="1525" d="M692 1532l-268 295h209l219 -295h-160zM764 -20q-131 0 -240 38t-185 105t-128.5 159t-77 199t-24.5 226t24.5 226t77 199t128.5 159t185 105t240 38q162 0 289 -58t205.5 -159.5t118.5 -230.5t40 -279t-40 -279t-118.5 -230.5t-205.5 -159.5t-289 -58zM764 160 q95 0 171 29.5t127.5 80t86 120.5t50 149t15.5 168q0 112 -25.5 207.5t-77.5 173t-141 121.5t-206 44q-95 0 -171.5 -29t-128 -79.5t-86 -120.5t-50 -149t-15.5 -168t15.5 -168t50 -149t86 -120.5t128 -80t171.5 -29.5z" />
<glyph unicode="&#xd3;" horiz-adv-x="1525" d="M662 1538l219 289h209l-283 -289h-145zM764 -20q-131 0 -240 38t-185 105t-128.5 159t-77 199t-24.5 226t24.5 226t77 199t128.5 159t185 105t240 38q162 0 289 -58t205.5 -159.5t118.5 -230.5t40 -279t-40 -279t-118.5 -230.5t-205.5 -159.5t-289 -58zM764 160 q95 0 171 29.5t127.5 80t86 120.5t50 149t15.5 168q0 112 -25.5 207.5t-77.5 173t-141 121.5t-206 44q-95 0 -171.5 -29t-128 -79.5t-86 -120.5t-50 -149t-15.5 -168t15.5 -168t50 -149t86 -120.5t128 -80t171.5 -29.5z" />
<glyph unicode="&#xd4;" horiz-adv-x="1525" d="M436 1511l326 355l328 -355h-168l-160 181l-158 -181h-168zM764 -20q-131 0 -240 38t-185 105t-128.5 159t-77 199t-24.5 226t24.5 226t77 199t128.5 159t185 105t240 38q162 0 289 -58t205.5 -159.5t118.5 -230.5t40 -279t-40 -279t-118.5 -230.5t-205.5 -159.5 t-289 -58zM764 160q95 0 171 29.5t127.5 80t86 120.5t50 149t15.5 168q0 112 -25.5 207.5t-77.5 173t-141 121.5t-206 44q-95 0 -171.5 -29t-128 -79.5t-86 -120.5t-50 -149t-15.5 -168t15.5 -168t50 -149t86 -120.5t128 -80t171.5 -29.5z" />
<glyph unicode="&#xd5;" horiz-adv-x="1525" d="M920 1550q-58 0 -108 24t-79 52t-66 52t-73 24q-91 0 -88 -137h-129q0 121 55 190.5t158 69.5q64 0 116.5 -24.5t81 -53.5t63.5 -53.5t69 -24.5q50 0 71 38.5t21 111.5h137q0 -130 -59.5 -199.5t-169.5 -69.5zM764 -20q-131 0 -240 38t-185 105t-128.5 159t-77 199 t-24.5 226t24.5 226t77 199t128.5 159t185 105t240 38q162 0 289 -58t205.5 -159.5t118.5 -230.5t40 -279t-40 -279t-118.5 -230.5t-205.5 -159.5t-289 -58zM764 160q95 0 171 29.5t127.5 80t86 120.5t50 149t15.5 168q0 112 -25.5 207.5t-77.5 173t-141 121.5t-206 44 q-95 0 -171.5 -29t-128 -79.5t-86 -120.5t-50 -149t-15.5 -168t15.5 -168t50 -149t86 -120.5t128 -80t171.5 -29.5z" />
<glyph unicode="&#xd6;" horiz-adv-x="1525" d="M504 1585v180h178v-180h-178zM844 1585v180h178v-180h-178zM764 -20q-131 0 -240 38t-185 105t-128.5 159t-77 199t-24.5 226t24.5 226t77 199t128.5 159t185 105t240 38q162 0 289 -58t205.5 -159.5t118.5 -230.5t40 -279t-40 -279t-118.5 -230.5t-205.5 -159.5 t-289 -58zM764 160q95 0 171 29.5t127.5 80t86 120.5t50 149t15.5 168q0 112 -25.5 207.5t-77.5 173t-141 121.5t-206 44q-95 0 -171.5 -29t-128 -79.5t-86 -120.5t-50 -149t-15.5 -168t15.5 -168t50 -149t86 -120.5t128 -80t171.5 -29.5z" />
<glyph unicode="&#xd7;" horiz-adv-x="1282" d="M317 201l-100 100l322 324l-316 315l103 102l315 -315l324 322l100 -101l-322 -323l316 -316l-103 -102l-315 315z" />
<glyph unicode="&#xd8;" horiz-adv-x="1525" d="M1178 1298q118 -97 178.5 -251.5t60.5 -339.5q0 -150 -40 -279t-118.5 -230.5t-205.5 -159.5t-289 -58q-164 0 -295 59l-23 -39h-161l63 115q-118 97 -178.5 252t-60.5 340q0 119 24.5 226t77 199t128.5 159t185 105t240 38q167 0 293 -60l22 39h162zM313 707 q0 -274 133 -418l519 921q-82 43 -201 43q-95 0 -171.5 -29t-128 -79.5t-86 -120.5t-50 -149t-15.5 -168zM764 160q95 0 171 29.5t127.5 80t86 120.5t50 149t15.5 168q0 270 -135 419l-518 -923q88 -43 203 -43z" />
<glyph unicode="&#xd9;" horiz-adv-x="1320" d="M590 1532l-268 295h208l220 -295h-160zM662 -20q-133 0 -232.5 42.5t-160 122t-90 185.5t-29.5 239v844h198v-833q0 -97 15 -168.5t50 -128t97.5 -85t151.5 -28.5q90 0 152.5 28.5t97.5 85t50 128t15 168.5v833h199v-833q0 -137 -30 -245.5t-91 -188.5t-160.5 -123 t-232.5 -43z" />
<glyph unicode="&#xda;" horiz-adv-x="1320" d="M559 1538l219 289h209l-282 -289h-146zM662 -20q-133 0 -232.5 42.5t-160 122t-90 185.5t-29.5 239v844h198v-833q0 -97 15 -168.5t50 -128t97.5 -85t151.5 -28.5q90 0 152.5 28.5t97.5 85t50 128t15 168.5v833h199v-833q0 -137 -30 -245.5t-91 -188.5t-160.5 -123 t-232.5 -43z" />
<glyph unicode="&#xdb;" horiz-adv-x="1320" d="M334 1511l325 355l328 -355h-168l-160 181l-157 -181h-168zM662 -20q-133 0 -232.5 42.5t-160 122t-90 185.5t-29.5 239v844h198v-833q0 -97 15 -168.5t50 -128t97.5 -85t151.5 -28.5q90 0 152.5 28.5t97.5 85t50 128t15 168.5v833h199v-833q0 -137 -30 -245.5 t-91 -188.5t-160.5 -123t-232.5 -43z" />
<glyph unicode="&#xdc;" horiz-adv-x="1320" d="M401 1585v180h179v-180h-179zM741 1585v180h179v-180h-179zM662 -20q-133 0 -232.5 42.5t-160 122t-90 185.5t-29.5 239v844h198v-833q0 -97 15 -168.5t50 -128t97.5 -85t151.5 -28.5q90 0 152.5 28.5t97.5 85t50 128t15 168.5v833h199v-833q0 -137 -30 -245.5 t-91 -188.5t-160.5 -123t-232.5 -43z" />
<glyph unicode="&#xdd;" horiz-adv-x="1337" d="M567 1538l219 289h209l-282 -289h-146zM569 0v553l-553 860h234l420 -674l417 674h234l-553 -860v-553h-199z" />
<glyph unicode="&#xde;" horiz-adv-x="1116" d="M184 0v1413h191v-199h221q213 0 341 -106.5t128 -294.5q0 -187 -128 -291t-341 -104h-221v-418h-191zM375 594h221q137 0 207.5 56.5t70.5 166.5t-71.5 170t-206.5 60h-221v-453z" />
<glyph unicode="&#xdf;" horiz-adv-x="1054" d="M694 -18q-132 0 -288 73l77 170q108 -63 211 -63q63 0 106.5 41t43.5 102q0 44 -22 84.5t-54.5 70.5t-71 65.5t-71 68t-54.5 78t-22 96.5q0 50 22.5 88.5t54.5 63t63.5 47.5t54 53.5t22.5 69.5q0 79 -53.5 127.5t-157.5 48.5q-105 0 -164 -62t-59 -164v-1040h-201v1040 q0 182 120.5 288t301.5 106q74 0 147 -24.5t133 -69t97 -113.5t37 -150q0 -57 -24 -100.5t-58.5 -68.5t-69 -46t-58.5 -46t-24 -56q0 -29 23.5 -58t58.5 -52.5t76 -57.5t76 -69.5t58.5 -91t23.5 -120.5q0 -144 -102 -236.5t-253 -92.5z" />
<glyph unicode="&#xe0;" horiz-adv-x="1069" d="M465 1118l-268 295h209l219 -295h-160zM430 -20q-139 0 -237.5 84.5t-98.5 220.5q0 80 28.5 138.5t81 92.5t120 50t151.5 16h289q0 131 -55.5 199.5t-180.5 68.5q-78 0 -144 -41t-103 -100l-144 104q75 102 171.5 152.5t228.5 50.5q191 0 298 -109.5t107 -294.5v-612 h-151l-19 162q-64 -96 -145.5 -139t-196.5 -43zM471 145q121 0 207 89t86 202h-275q-89 0 -144.5 -41.5t-55.5 -109.5t51.5 -104t130.5 -36z" />
<glyph unicode="&#xe1;" horiz-adv-x="1069" d="M434 1124l219 289h209l-282 -289h-146zM430 -20q-139 0 -237.5 84.5t-98.5 220.5q0 80 28.5 138.5t81 92.5t120 50t151.5 16h289q0 131 -55.5 199.5t-180.5 68.5q-78 0 -144 -41t-103 -100l-144 104q75 102 171.5 152.5t228.5 50.5q191 0 298 -109.5t107 -294.5v-612 h-151l-19 162q-64 -96 -145.5 -139t-196.5 -43zM471 145q121 0 207 89t86 202h-275q-89 0 -144.5 -41.5t-55.5 -109.5t51.5 -104t130.5 -36z" />
<glyph unicode="&#xe2;" horiz-adv-x="1069" d="M209 1098l326 354l327 -354h-168l-159 180l-158 -180h-168zM430 -20q-139 0 -237.5 84.5t-98.5 220.5q0 80 28.5 138.5t81 92.5t120 50t151.5 16h289q0 131 -55.5 199.5t-180.5 68.5q-78 0 -144 -41t-103 -100l-144 104q75 102 171.5 152.5t228.5 50.5q191 0 298 -109.5 t107 -294.5v-612h-151l-19 162q-64 -96 -145.5 -139t-196.5 -43zM471 145q121 0 207 89t86 202h-275q-89 0 -144.5 -41.5t-55.5 -109.5t51.5 -104t130.5 -36z" />
<glyph unicode="&#xe3;" horiz-adv-x="1069" d="M690 1139q-48 0 -89 15.5t-69.5 37.5t-54 44.5t-54 38t-58.5 15.5q-92 0 -89 -137h-129q0 121 55 190.5t158 69.5q64 0 116.5 -24.5t81 -53.5t63.5 -53.5t69 -24.5q50 0 71 38.5t21 111.5h138q0 -130 -59.5 -199t-170.5 -69zM430 -20q-139 0 -237.5 84.5t-98.5 220.5 q0 80 28.5 138.5t81 92.5t120 50t151.5 16h289q0 131 -55.5 199.5t-180.5 68.5q-78 0 -144 -41t-103 -100l-144 104q75 102 171.5 152.5t228.5 50.5q191 0 298 -109.5t107 -294.5v-612h-151l-19 162q-64 -96 -145.5 -139t-196.5 -43zM471 145q121 0 207 89t86 202h-275 q-89 0 -144.5 -41.5t-55.5 -109.5t51.5 -104t130.5 -36z" />
<glyph unicode="&#xe4;" horiz-adv-x="1069" d="M274 1171v181h179v-181h-179zM614 1171v181h179v-181h-179zM430 -20q-139 0 -237.5 84.5t-98.5 220.5q0 80 28.5 138.5t81 92.5t120 50t151.5 16h289q0 131 -55.5 199.5t-180.5 68.5q-78 0 -144 -41t-103 -100l-144 104q75 102 171.5 152.5t228.5 50.5q191 0 298 -109.5 t107 -294.5v-612h-151l-19 162q-64 -96 -145.5 -139t-196.5 -43zM471 145q121 0 207 89t86 202h-275q-89 0 -144.5 -41.5t-55.5 -109.5t51.5 -104t130.5 -36z" />
<glyph unicode="&#xe5;" horiz-adv-x="1069" d="M532 1075q-88 0 -148 62t-60 149q0 88 60 148.5t148 60.5q87 0 149 -60.5t62 -148.5t-61.5 -149.5t-149.5 -61.5zM532 1186q43 0 72 29t29 73q0 42 -28 69t-73 27q-44 0 -71 -26.5t-27 -69.5q0 -44 28 -73t70 -29zM430 -20q-139 0 -237.5 84.5t-98.5 220.5 q0 80 28.5 138.5t81 92.5t120 50t151.5 16h289q0 131 -55.5 199.5t-180.5 68.5q-78 0 -144 -41t-103 -100l-144 104q75 102 171.5 152.5t228.5 50.5q191 0 298 -109.5t107 -294.5v-612h-151l-19 162q-64 -96 -145.5 -139t-196.5 -43zM471 145q121 0 207 89t86 202h-275 q-89 0 -144.5 -41.5t-55.5 -109.5t51.5 -104t130.5 -36z" />
<glyph unicode="&#xe6;" horiz-adv-x="1699" d="M416 -20q-138 0 -236 84.5t-98 218.5q0 105 50.5 173.5t133 97t195.5 28.5h295q0 135 -57.5 205.5t-184.5 70.5q-80 0 -146.5 -39.5t-105.5 -97.5l-139 94q75 102 171 151.5t228 49.5q118 0 202.5 -47t127.5 -133q113 176 328 176q98 0 174 -29t124.5 -77.5t80 -117 t44.5 -142t13 -157.5l-6 -53h-690q5 -121 75 -198.5t195 -77.5q87 0 149 22t117 78l131 -108q-83 -87 -177.5 -125.5t-217.5 -38.5q-276 0 -371 229q-130 -237 -405 -237zM920 582h514q-8 125 -73 195.5t-187 70.5q-117 0 -180.5 -74t-73.5 -192zM455 139q122 0 209 91.5 t92 205.5h-281q-91 0 -148 -41t-57 -110q0 -65 56 -105.5t129 -40.5z" />
<glyph unicode="&#xe7;" horiz-adv-x="1015" d="M555 152q83 0 143 47t82 127l170 -68q-44 -129 -145 -202t-238 -76l-73 -107q186 -51 186 -170q0 -85 -62 -144t-141 -59q-66 0 -115.5 37t-72.5 94l108 52q6 -27 27.5 -45.5t52.5 -18.5t55.5 22.5t24.5 55.5q0 56 -82 80l-129 39l96 176q-165 40 -253.5 181t-88.5 325 q0 103 28.5 194.5t83 164.5t143.5 116t200 43q138 0 245 -73t163 -202l-183 -71q-22 82 -82 128t-143 46q-69 0 -121.5 -30t-82 -80.5t-44 -110t-14.5 -125.5q0 -67 14 -126t43.5 -110t82 -80.5t122.5 -29.5z" />
<glyph unicode="&#xe8;" horiz-adv-x="1060" d="M465 1118l-268 295h209l219 -295h-160zM565 -12q-115 0 -206.5 41t-149 111t-87.5 160.5t-30 193.5t28.5 194.5t83 164.5t143.5 116t200 43q99 0 177 -29t127 -77.5t80.5 -117t44.5 -141.5t13 -158l-4 -53h-692q6 -122 75.5 -199t194.5 -77q87 0 149.5 22t118.5 78 l130 -108q-83 -87 -178 -125.5t-218 -38.5zM293 582h514q-6 124 -71 195t-189 71q-116 0 -180 -74t-74 -192z" />
<glyph unicode="&#xe9;" horiz-adv-x="1060" d="M434 1124l219 289h209l-282 -289h-146zM565 -12q-115 0 -206.5 41t-149 111t-87.5 160.5t-30 193.5t28.5 194.5t83 164.5t143.5 116t200 43q99 0 177 -29t127 -77.5t80.5 -117t44.5 -141.5t13 -158l-4 -53h-692q6 -122 75.5 -199t194.5 -77q87 0 149.5 22t118.5 78 l130 -108q-83 -87 -178 -125.5t-218 -38.5zM293 582h514q-6 124 -71 195t-189 71q-116 0 -180 -74t-74 -192z" />
<glyph unicode="&#xea;" horiz-adv-x="1060" d="M209 1098l326 354l327 -354h-168l-159 180l-158 -180h-168zM565 -12q-115 0 -206.5 41t-149 111t-87.5 160.5t-30 193.5t28.5 194.5t83 164.5t143.5 116t200 43q99 0 177 -29t127 -77.5t80.5 -117t44.5 -141.5t13 -158l-4 -53h-692q6 -122 75.5 -199t194.5 -77 q87 0 149.5 22t118.5 78l130 -108q-83 -87 -178 -125.5t-218 -38.5zM293 582h514q-6 124 -71 195t-189 71q-116 0 -180 -74t-74 -192z" />
<glyph unicode="&#xeb;" horiz-adv-x="1060" d="M276 1171v181h179v-181h-179zM616 1171v181h179v-181h-179zM565 -12q-115 0 -206.5 41t-149 111t-87.5 160.5t-30 193.5t28.5 194.5t83 164.5t143.5 116t200 43q99 0 177 -29t127 -77.5t80.5 -117t44.5 -141.5t13 -158l-4 -53h-692q6 -122 75.5 -199t194.5 -77 q87 0 149.5 22t118.5 78l130 -108q-83 -87 -178 -125.5t-218 -38.5zM293 582h514q-6 124 -71 195t-189 71q-116 0 -180 -74t-74 -192z" />
<glyph unicode="&#xec;" horiz-adv-x="522" d="M190 1118l-268 295h209l219 -295h-160zM168 0v999h188v-999h-188z" />
<glyph unicode="&#xed;" horiz-adv-x="522" d="M160 1124l219 289h209l-283 -289h-145zM168 0v999h188v-999h-188z" />
<glyph unicode="&#xee;" horiz-adv-x="522" d="M-63 1098l325 354l328 -354h-168l-160 180l-158 -180h-167zM168 0v999h188v-999h-188z" />
<glyph unicode="&#xef;" horiz-adv-x="522" d="M2 1171v181h178v-181h-178zM342 1171v181h178v-181h-178zM168 0v999h188v-999h-188z" />
<glyph unicode="&#xf0;" horiz-adv-x="1191" d="M594 -16q-114 0 -208 43.5t-154 117.5t-93 169.5t-33 201.5q0 143 55.5 262.5t168.5 195t264 75.5q64 0 125 -23.5t96 -58.5q-40 150 -205 266l-80 -121l-129 92l72 107q-88 44 -160 69l86 136q90 -36 162 -74l72 108l127 -92l-64 -96q66 -45 120 -97t104.5 -126.5 t85 -162.5t55 -205.5t20.5 -254.5q0 -106 -32.5 -201.5t-93 -169.5t-154 -117.5t-207.5 -43.5zM594 150q99 0 169.5 53.5t102 134.5t31.5 178q0 155 -79.5 261t-223.5 106q-99 0 -169.5 -54t-102 -135t-31.5 -178t31.5 -178t102 -134.5t169.5 -53.5z" />
<glyph unicode="&#xf1;" d="M739 1139q-48 0 -89 15.5t-69.5 37.5t-54 44.5t-54 38t-58.5 15.5q-91 0 -88 -137h-129q0 121 55 190.5t158 69.5q53 0 96.5 -16t72 -39t53.5 -46t52 -39t55 -16q50 0 71 38.5t21 111.5h138q0 -130 -59.5 -199t-170.5 -69zM176 0v999h193v-141q51 75 133 116.5t170 41.5 q92 0 162 -33.5t111 -92t61 -130t20 -154.5v-606h-192v582q0 254 -189 254q-113 0 -194.5 -83t-81.5 -196v-557h-193z" />
<glyph unicode="&#xf2;" d="M512 1118l-268 295h209l219 -295h-160zM584 -20q-216 0 -356 149.5t-140 366.5t140 366.5t356 149.5t355.5 -149.5t139.5 -366.5t-139.5 -366.5t-355.5 -149.5zM584 145q74 0 130.5 28.5t89 78.5t48.5 111t16 133t-16 133t-48.5 110.5t-89 78t-130.5 28.5t-130.5 -28.5 t-89.5 -78t-49 -110.5t-16 -133t16 -133t49 -111t89.5 -78.5t130.5 -28.5z" />
<glyph unicode="&#xf3;" d="M481 1124l219 289h209l-282 -289h-146zM584 -20q-216 0 -356 149.5t-140 366.5t140 366.5t356 149.5t355.5 -149.5t139.5 -366.5t-139.5 -366.5t-355.5 -149.5zM584 145q74 0 130.5 28.5t89 78.5t48.5 111t16 133t-16 133t-48.5 110.5t-89 78t-130.5 28.5t-130.5 -28.5 t-89.5 -78t-49 -110.5t-16 -133t16 -133t49 -111t89.5 -78.5t130.5 -28.5z" />
<glyph unicode="&#xf4;" d="M258 1098l326 354l327 -354h-168l-159 180l-158 -180h-168zM584 -20q-216 0 -356 149.5t-140 366.5t140 366.5t356 149.5t355.5 -149.5t139.5 -366.5t-139.5 -366.5t-355.5 -149.5zM584 145q74 0 130.5 28.5t89 78.5t48.5 111t16 133t-16 133t-48.5 110.5t-89 78 t-130.5 28.5t-130.5 -28.5t-89.5 -78t-49 -110.5t-16 -133t16 -133t49 -111t89.5 -78.5t130.5 -28.5z" />
<glyph unicode="&#xf5;" d="M739 1139q-48 0 -89 15.5t-69.5 37.5t-54 44.5t-54 38t-58.5 15.5q-91 0 -88 -137h-129q0 121 55 190.5t158 69.5q53 0 96.5 -16t72 -39t53.5 -46t52 -39t55 -16q50 0 71 38.5t21 111.5h138q0 -130 -59.5 -199t-170.5 -69zM584 -20q-216 0 -356 149.5t-140 366.5 t140 366.5t356 149.5t355.5 -149.5t139.5 -366.5t-139.5 -366.5t-355.5 -149.5zM584 145q74 0 130.5 28.5t89 78.5t48.5 111t16 133t-16 133t-48.5 110.5t-89 78t-130.5 28.5t-130.5 -28.5t-89.5 -78t-49 -110.5t-16 -133t16 -133t49 -111t89.5 -78.5t130.5 -28.5z" />
<glyph unicode="&#xf6;" d="M324 1171v181h178v-181h-178zM664 1171v181h178v-181h-178zM584 -20q-216 0 -356 149.5t-140 366.5t140 366.5t356 149.5t355.5 -149.5t139.5 -366.5t-139.5 -366.5t-355.5 -149.5zM584 145q74 0 130.5 28.5t89 78.5t48.5 111t16 133t-16 133t-48.5 110.5t-89 78 t-130.5 28.5t-130.5 -28.5t-89.5 -78t-49 -110.5t-16 -133t16 -133t49 -111t89.5 -78.5t130.5 -28.5z" />
<glyph unicode="&#xf7;" horiz-adv-x="1132" d="M453 778v223h225v-223h-225zM133 461v143h866v-143h-866zM453 47v223h225v-223h-225z" />
<glyph unicode="&#xf8;" d="M874 920q96 -71 150.5 -182.5t54.5 -241.5q0 -217 -139.5 -366.5t-355.5 -149.5q-113 0 -211 45l-13 -23h-114l41 74q-93 71 -146 181.5t-53 238.5q0 217 140 366.5t356 149.5q114 0 204 -43l17 28h115zM299 496q0 -166 78 -260l330 585q-55 25 -123 25 q-74 0 -130.5 -28.5t-89.5 -78t-49 -110.5t-16 -133zM584 145q74 0 130.5 28.5t89 78.5t48.5 111t16 133q0 171 -82 266l-329 -590q59 -27 127 -27z" />
<glyph unicode="&#xf9;" horiz-adv-x="1175" d="M518 1118l-268 295h209l219 -295h-160zM510 -23q-75 0 -135.5 23.5t-101 64t-68 96t-39.5 117t-12 130.5v591h192v-587q0 -262 186 -262q113 0 196 86.5t83 199.5v563h193v-999h-193v145q-42 -70 -124 -119t-177 -49z" />
<glyph unicode="&#xfa;" horiz-adv-x="1175" d="M487 1124l220 289h208l-282 -289h-146zM510 -23q-75 0 -135.5 23.5t-101 64t-68 96t-39.5 117t-12 130.5v591h192v-587q0 -262 186 -262q113 0 196 86.5t83 199.5v563h193v-999h-193v145q-42 -70 -124 -119t-177 -49z" />
<glyph unicode="&#xfb;" horiz-adv-x="1175" d="M262 1098l326 354l327 -354h-167l-160 180l-158 -180h-168zM510 -23q-75 0 -135.5 23.5t-101 64t-68 96t-39.5 117t-12 130.5v591h192v-587q0 -262 186 -262q113 0 196 86.5t83 199.5v563h193v-999h-193v145q-42 -70 -124 -119t-177 -49z" />
<glyph unicode="&#xfc;" horiz-adv-x="1175" d="M328 1171v181h178v-181h-178zM668 1171v181h178v-181h-178zM510 -23q-75 0 -135.5 23.5t-101 64t-68 96t-39.5 117t-12 130.5v591h192v-587q0 -262 186 -262q113 0 196 86.5t83 199.5v563h193v-999h-193v145q-42 -70 -124 -119t-177 -49z" />
<glyph unicode="&#xfd;" horiz-adv-x="1019" d="M410 1124l219 289h209l-283 -289h-145zM244 -430l172 446l-385 983h209l274 -763l272 763h209l-551 -1429h-200z" />
<glyph unicode="&#xfe;" horiz-adv-x="1191" d="M184 -438v1851h191v-528q109 135 297 135q130 0 225.5 -71t142.5 -187.5t47 -261.5t-47 -261.5t-142.5 -187.5t-225.5 -71q-188 0 -297 135v-553h-191zM631 150q133 0 202.5 98t69.5 252q0 152 -69.5 250t-202.5 98t-203 -98.5t-70 -249.5q0 -153 70 -251.5t203 -98.5z " />
<glyph unicode="&#xff;" horiz-adv-x="1019" d="M250 1171v181h178v-181h-178zM590 1171v181h178v-181h-178zM244 -430l172 446l-385 983h209l274 -763l272 763h209l-551 -1429h-200z" />
<glyph unicode="&#x100;" horiz-adv-x="1314" d="M385 1587v131h547v-131h-547zM37 0l545 1413h153l543 -1413h-217l-109 307h-587l-109 -307h-219zM432 483h455l-228 635z" />
<glyph unicode="&#x101;" horiz-adv-x="1069" d="M262 1174v131h547v-131h-547zM430 -20q-139 0 -237.5 84.5t-98.5 220.5q0 80 28.5 138.5t81 92.5t120 50t151.5 16h289q0 131 -55.5 199.5t-180.5 68.5q-78 0 -144 -41t-103 -100l-144 104q75 102 171.5 152.5t228.5 50.5q191 0 298 -109.5t107 -294.5v-612h-151l-19 162 q-64 -96 -145.5 -139t-196.5 -43zM471 145q121 0 207 89t86 202h-275q-89 0 -144.5 -41.5t-55.5 -109.5t51.5 -104t130.5 -36z" />
<glyph unicode="&#x102;" horiz-adv-x="1314" d="M657 1556q-144 0 -226.5 71t-82.5 200h146q0 -67 47 -108.5t116 -41.5q71 0 117.5 41t46.5 109h146q0 -131 -83.5 -201t-226.5 -70zM37 0l545 1413h153l543 -1413h-217l-109 307h-587l-109 -307h-219zM432 483h455l-228 635z" />
<glyph unicode="&#x103;" horiz-adv-x="1069" d="M535 1143q-144 0 -227 70.5t-83 199.5h146q0 -67 47 -108t117 -41q71 0 117 40.5t46 108.5h146q0 -131 -83 -200.5t-226 -69.5zM430 -20q-139 0 -237.5 84.5t-98.5 220.5q0 80 28.5 138.5t81 92.5t120 50t151.5 16h289q0 131 -55.5 199.5t-180.5 68.5q-78 0 -144 -41 t-103 -100l-144 104q75 102 171.5 152.5t228.5 50.5q191 0 298 -109.5t107 -294.5v-612h-151l-19 162q-64 -96 -145.5 -139t-196.5 -43zM471 145q121 0 207 89t86 202h-275q-89 0 -144.5 -41.5t-55.5 -109.5t51.5 -104t130.5 -36z" />
<glyph unicode="&#x104;" horiz-adv-x="1314" d="M1255 -266l103 -68q-79 -117 -211 -117q-92 0 -150.5 56t-58.5 149q0 54 23 101t58 76.5t60 45t45 23.5h-63l-109 307h-587l-109 -307h-219l545 1413h153l543 -1413q-9 -3 -26.5 -10t-54 -28t-66 -45.5t-53 -62.5t-23.5 -79q0 -50 24 -76.5t60 -26.5q72 0 116 62z M432 483h455l-228 635z" />
<glyph unicode="&#x105;" horiz-adv-x="1069" d="M920 -266l102 -68q-79 -117 -211 -117q-92 0 -150.5 56t-58.5 149q0 54 23 101t58 76.5t60 45t45 23.5h3l-19 162q-64 -96 -145.5 -139t-196.5 -43q-139 0 -237.5 84.5t-98.5 220.5q0 80 28.5 138.5t81 92.5t120 50t151.5 16h289q0 131 -55.5 199.5t-180.5 68.5 q-78 0 -144 -41t-103 -100l-144 104q75 102 171.5 152.5t228.5 50.5q191 0 298 -109.5t107 -294.5v-612q-9 -3 -26.5 -10t-54 -28t-66 -45.5t-53 -62.5t-23.5 -79q0 -50 24 -76.5t60 -26.5q73 0 117 62zM471 145q121 0 207 89t86 202h-275q-89 0 -144.5 -41.5t-55.5 -109.5 t51.5 -104t130.5 -36z" />
<glyph unicode="&#x106;" horiz-adv-x="1443" d="M621 1538l219 289h209l-283 -289h-145zM772 -20q-163 0 -291 58t-206.5 159t-119 230.5t-40.5 279.5q0 120 24.5 227t77 199.5t128.5 159.5t185 105t240 38q202 0 355.5 -100t236.5 -289l-186 -76q-41 144 -148.5 211t-259.5 67q-93 0 -169.5 -28t-129.5 -77t-89 -116.5 t-52.5 -145.5t-16.5 -165q0 -117 27 -214.5t81.5 -174t144.5 -119.5t208 -43q147 0 248.5 66.5t159.5 213.5l184 -75q-81 -189 -235.5 -290t-356.5 -101z" />
<glyph unicode="&#x107;" horiz-adv-x="1015" d="M408 1124l219 289h209l-283 -289h-145zM557 -20q-111 0 -200 42.5t-144 115.5t-84 165t-29 195t28.5 194.5t83 164.5t143.5 116t200 43q138 0 245 -73t163 -202l-183 -71q-22 82 -82 128t-143 46q-69 0 -121.5 -30t-82 -80.5t-44 -110t-14.5 -125.5q0 -67 14 -126 t43.5 -110t82 -80.5t122.5 -29.5q83 0 143 47t82 127l170 -68q-46 -132 -149.5 -205t-243.5 -73z" />
<glyph unicode="&#x10a;" horiz-adv-x="1443" d="M721 1571q-58 0 -97.5 40t-39.5 99q0 58 39 97.5t98 39.5t99 -39.5t40 -97.5t-40 -98.5t-99 -40.5zM772 -20q-163 0 -291 58t-206.5 159t-119 230.5t-40.5 279.5q0 120 24.5 227t77 199.5t128.5 159.5t185 105t240 38q202 0 355.5 -100t236.5 -289l-186 -76 q-41 144 -148.5 211t-259.5 67q-93 0 -169.5 -28t-129.5 -77t-89 -116.5t-52.5 -145.5t-16.5 -165q0 -117 27 -214.5t81.5 -174t144.5 -119.5t208 -43q147 0 248.5 66.5t159.5 213.5l184 -75q-81 -189 -235.5 -290t-356.5 -101z" />
<glyph unicode="&#x10b;" horiz-adv-x="1015" d="M506 1157q-58 0 -97.5 40t-39.5 99t39.5 98.5t97.5 39.5q59 0 99 -40t40 -98t-40.5 -98.5t-98.5 -40.5zM557 -20q-111 0 -200 42.5t-144 115.5t-84 165t-29 195t28.5 194.5t83 164.5t143.5 116t200 43q138 0 245 -73t163 -202l-183 -71q-22 82 -82 128t-143 46 q-69 0 -121.5 -30t-82 -80.5t-44 -110t-14.5 -125.5q0 -67 14 -126t43.5 -110t82 -80.5t122.5 -29.5q83 0 143 47t82 127l170 -68q-46 -132 -149.5 -205t-243.5 -73z" />
<glyph unicode="&#x10c;" horiz-adv-x="1443" d="M721 1495l-326 332h168l158 -172l160 172h168zM772 -20q-163 0 -291 58t-206.5 159t-119 230.5t-40.5 279.5q0 120 24.5 227t77 199.5t128.5 159.5t185 105t240 38q202 0 355.5 -100t236.5 -289l-186 -76q-41 144 -148.5 211t-259.5 67q-93 0 -169.5 -28t-129.5 -77 t-89 -116.5t-52.5 -145.5t-16.5 -165q0 -117 27 -214.5t81.5 -174t144.5 -119.5t208 -43q147 0 248.5 66.5t159.5 213.5l184 -75q-81 -189 -235.5 -290t-356.5 -101z" />
<glyph unicode="&#x10d;" horiz-adv-x="1015" d="M508 1081l-326 332h168l158 -172l160 172h168zM557 -20q-111 0 -200 42.5t-144 115.5t-84 165t-29 195t28.5 194.5t83 164.5t143.5 116t200 43q138 0 245 -73t163 -202l-183 -71q-22 82 -82 128t-143 46q-69 0 -121.5 -30t-82 -80.5t-44 -110t-14.5 -125.5q0 -67 14 -126 t43.5 -110t82 -80.5t122.5 -29.5q83 0 143 47t82 127l170 -68q-46 -132 -149.5 -205t-243.5 -73z" />
<glyph unicode="&#x10e;" horiz-adv-x="1374" d="M696 1495l-325 332h168l157 -172l160 172h168zM174 0v1413h383q350 0 535.5 -184.5t185.5 -532.5q-2 -334 -189 -515t-534 -181h-381zM373 182h157q124 0 222 30t172 91.5t113.5 164t39.5 239.5q0 266 -128 395t-396 129h-180v-1049z" />
<glyph unicode="&#x10f;" horiz-adv-x="1187" d="M1094 1004l106 409h221l-211 -409h-116zM510 -20q-128 0 -223.5 71.5t-143 188.5t-47.5 260t47.5 260t143 188.5t223.5 71.5q194 0 301 -141v534h190v-1413h-190v121q-107 -141 -301 -141zM557 154q132 0 197 96.5t65 249.5q0 152 -65 249t-197 97q-131 0 -198.5 -97.5 t-67.5 -248.5q0 -152 67.5 -249t198.5 -97z" />
<glyph unicode="&#x110;" horiz-adv-x="1394" d="M174 0v641h-113v143h113v629h379q349 0 537 -185t188 -532q-1 -333 -191 -514.5t-536 -181.5h-377zM367 178h159q124 0 224 30.5t175.5 93.5t116.5 165.5t41 239.5q0 264 -131.5 397t-402.5 133h-182v-453h421v-143h-421v-463z" />
<glyph unicode="&#x111;" horiz-adv-x="1187" d="M1165 1266v-95h-164v-1171h-190v121q-107 -141 -301 -141q-128 0 -223.5 71.5t-143 188.5t-47.5 260t47.5 260t143 188.5t223.5 71.5q194 0 301 -141v292h-281v95h281v147h190v-147h164zM557 154q132 0 197 96.5t65 249.5q0 152 -65 249t-197 97q-131 0 -198.5 -97.5 t-67.5 -248.5q0 -152 67.5 -249t198.5 -97z" />
<glyph unicode="&#x112;" horiz-adv-x="1224" d="M340 1587v131h547v-131h-547zM180 0v1413h928v-180h-727v-436h659v-181h-659v-432h727v-184h-928z" />
<glyph unicode="&#x113;" horiz-adv-x="1060" d="M262 1174v131h547v-131h-547zM565 -12q-115 0 -206.5 41t-149 111t-87.5 160.5t-30 193.5t28.5 194.5t83 164.5t143.5 116t200 43q99 0 177 -29t127 -77.5t80.5 -117t44.5 -141.5t13 -158l-4 -53h-692q6 -122 75.5 -199t194.5 -77q87 0 149.5 22t118.5 78l130 -108 q-83 -87 -178 -125.5t-218 -38.5zM293 582h514q-6 124 -71 195t-189 71q-116 0 -180 -74t-74 -192z" />
<glyph unicode="&#x116;" horiz-adv-x="1224" d="M612 1571q-58 0 -97.5 40t-39.5 99q0 58 39.5 97.5t97.5 39.5q59 0 99.5 -39.5t40.5 -97.5t-40.5 -98.5t-99.5 -40.5zM180 0v1413h928v-180h-727v-436h659v-181h-659v-432h727v-184h-928z" />
<glyph unicode="&#x117;" horiz-adv-x="1060" d="M535 1157q-58 0 -98 40t-40 99q0 58 39.5 98t98.5 40t99 -40t40 -98t-40 -98.5t-99 -40.5zM565 -12q-115 0 -206.5 41t-149 111t-87.5 160.5t-30 193.5t28.5 194.5t83 164.5t143.5 116t200 43q99 0 177 -29t127 -77.5t80.5 -117t44.5 -141.5t13 -158l-4 -53h-692 q6 -122 75.5 -199t194.5 -77q87 0 149.5 22t118.5 78l130 -108q-83 -87 -178 -125.5t-218 -38.5zM293 582h514q-6 124 -71 195t-189 71q-116 0 -180 -74t-74 -192z" />
<glyph unicode="&#x118;" horiz-adv-x="1224" d="M1079 -246l103 -67q-79 -117 -211 -117q-92 0 -150.5 56t-58.5 149q0 136 145 225h-727v1413h928v-180h-727v-436h659v-181h-659v-432h727v-184h-53q-176 -88 -176 -205q0 -50 24 -76t60 -26q73 0 116 61z" />
<glyph unicode="&#x119;" horiz-adv-x="1060" d="M989 489l-4 -53h-692q6 -122 75.5 -199t194.5 -77q87 0 149.5 22t118.5 78l130 -108q-88 -95 -205 -138q-158 -84 -158 -194q0 -50 24 -76.5t60 -26.5q73 0 117 62l102 -68q-79 -117 -211 -117q-92 0 -150.5 56t-58.5 149q0 107 94 189h-10q-115 0 -206.5 41t-149 111 t-87.5 160.5t-30 193.5t28.5 194.5t83 164.5t143.5 116t200 43q99 0 177 -29t127 -77.5t80.5 -117t44.5 -141.5t13 -158zM293 582h514q-6 124 -71 195t-189 71q-116 0 -180 -74t-74 -192z" />
<glyph unicode="&#x11a;" horiz-adv-x="1224" d="M612 1495l-325 332h168l157 -172l160 172h168zM180 0v1413h928v-180h-727v-436h659v-181h-659v-432h727v-184h-928z" />
<glyph unicode="&#x11b;" horiz-adv-x="1060" d="M535 1081l-326 332h168l158 -172l159 172h168zM565 -12q-115 0 -206.5 41t-149 111t-87.5 160.5t-30 193.5t28.5 194.5t83 164.5t143.5 116t200 43q99 0 177 -29t127 -77.5t80.5 -117t44.5 -141.5t13 -158l-4 -53h-692q6 -122 75.5 -199t194.5 -77q87 0 149.5 22 t118.5 78l130 -108q-83 -87 -178 -125.5t-218 -38.5zM293 582h514q-6 124 -71 195t-189 71q-116 0 -180 -74t-74 -192z" />
<glyph unicode="&#x11e;" horiz-adv-x="1538" d="M768 1556q-144 0 -226.5 71t-82.5 200h145q0 -67 47.5 -108.5t116.5 -41.5q71 0 117.5 41t46.5 109h145q0 -131 -83 -201t-226 -70zM772 -20q-163 0 -291 58t-206.5 159t-119 230.5t-40.5 279.5q0 120 24.5 227t77 199.5t128.5 159.5t185 105t240 38q202 0 355.5 -100 t236.5 -289l-182 -76q-56 139 -162.5 211.5t-249.5 72.5q-93 0 -169.5 -28.5t-129.5 -78.5t-89 -118.5t-52.5 -147t-16.5 -165.5q0 -117 27 -215t81.5 -175.5t144.5 -121t208 -43.5q171 0 291.5 112.5t132.5 303.5h-324v159h512v-737h-159l-13 233q-62 -113 -174 -183 t-266 -70z" />
<glyph unicode="&#x11f;" horiz-adv-x="1060" d="M530 1143q-144 0 -226.5 70.5t-82.5 199.5h146q0 -67 47 -108t116 -41q71 0 117.5 40.5t46.5 108.5h146q0 -131 -83.5 -200.5t-226.5 -69.5zM557 -459q-65 0 -126.5 9.5t-124.5 33t-109.5 59.5t-75.5 93.5t-29 130.5q0 53 19 110l153 64q-75 39 -114 102t-41 115 q0 108 112 225q-47 83 -47 179q0 157 109 253.5t272 96.5q96 0 182 -39l166 149l109 -143l-148 -107q70 -93 70 -213q0 -160 -108 -255t-271 -95q-122 0 -213 56q-59 -59 -59 -109q0 -21 11 -37.5t34.5 -26.5t48.5 -16.5t65 -9.5t70.5 -4t77.5 -2q80 -2 138 -9t115.5 -25 t93 -48.5t57.5 -81.5t22 -121q0 -90 -34.5 -155.5t-98 -104t-144.5 -56.5t-182 -18zM555 463q86 0 138 55t52 141q0 88 -51.5 145.5t-138.5 57.5q-86 0 -138 -57.5t-52 -145.5q0 -86 52 -141t138 -55zM559 -293q57 0 104 7t90 23.5t67 48.5t24 77q0 51 -35.5 80t-88.5 38 t-136 9q-125 0 -178 6l-152 -119q1 -16 9.5 -35t31 -44t54.5 -44.5t87 -33t123 -13.5z" />
<glyph unicode="&#x120;" horiz-adv-x="1538" d="M766 1571q-58 0 -97.5 40t-39.5 99q0 58 39.5 97.5t97.5 39.5q59 0 99 -39.5t40 -97.5t-40.5 -98.5t-98.5 -40.5zM772 -20q-163 0 -291 58t-206.5 159t-119 230.5t-40.5 279.5q0 120 24.5 227t77 199.5t128.5 159.5t185 105t240 38q202 0 355.5 -100t236.5 -289l-182 -76 q-56 139 -162.5 211.5t-249.5 72.5q-93 0 -169.5 -28.5t-129.5 -78.5t-89 -118.5t-52.5 -147t-16.5 -165.5q0 -117 27 -215t81.5 -175.5t144.5 -121t208 -43.5q171 0 291.5 112.5t132.5 303.5h-324v159h512v-737h-159l-13 233q-62 -113 -174 -183t-266 -70z" />
<glyph unicode="&#x121;" horiz-adv-x="1060" d="M528 1157q-58 0 -97.5 40t-39.5 99t39.5 98.5t97.5 39.5q59 0 99.5 -40t40.5 -98t-40.5 -98.5t-99.5 -40.5zM557 -459q-65 0 -126.5 9.5t-124.5 33t-109.5 59.5t-75.5 93.5t-29 130.5q0 53 19 110l153 64q-75 39 -114 102t-41 115q0 108 112 225q-47 83 -47 179 q0 157 109 253.5t272 96.5q96 0 182 -39l166 149l109 -143l-148 -107q70 -93 70 -213q0 -160 -108 -255t-271 -95q-122 0 -213 56q-59 -59 -59 -109q0 -21 11 -37.5t34.5 -26.5t48.5 -16.5t65 -9.5t70.5 -4t77.5 -2q80 -2 138 -9t115.5 -25t93 -48.5t57.5 -81.5t22 -121 q0 -90 -34.5 -155.5t-98 -104t-144.5 -56.5t-182 -18zM555 463q86 0 138 55t52 141q0 88 -51.5 145.5t-138.5 57.5q-86 0 -138 -57.5t-52 -145.5q0 -86 52 -141t138 -55zM559 -293q57 0 104 7t90 23.5t67 48.5t24 77q0 51 -35.5 80t-88.5 38t-136 9q-125 0 -178 6l-152 -119 q1 -16 9.5 -35t31 -44t54.5 -44.5t87 -33t123 -13.5z" />
<glyph unicode="&#x122;" horiz-adv-x="1538" d="M772 -20q-163 0 -291 58t-206.5 159t-119 230.5t-40.5 279.5q0 120 24.5 227t77 199.5t128.5 159.5t185 105t240 38q202 0 355.5 -100t236.5 -289l-182 -76q-56 139 -162.5 211.5t-249.5 72.5q-93 0 -169.5 -28.5t-129.5 -78.5t-89 -118.5t-52.5 -147t-16.5 -165.5 q0 -117 27 -215t81.5 -175.5t144.5 -121t208 -43.5q171 0 291.5 112.5t132.5 303.5h-324v159h512v-737h-159l-13 233q-62 -113 -174 -183t-266 -70zM551 -449l127 338h221l-231 -338h-117z" />
<glyph unicode="&#x123;" horiz-adv-x="1060" d="M721 1425l-127 -303h-221l231 303h117zM557 -459q-65 0 -126.5 9.5t-124.5 33t-109.5 59.5t-75.5 93.5t-29 130.5q0 53 19 110l153 64q-75 39 -114 102t-41 115q0 108 112 225q-47 83 -47 179q0 157 109 253.5t272 96.5q96 0 182 -39l166 149l109 -143l-148 -107 q70 -93 70 -213q0 -160 -108 -255t-271 -95q-122 0 -213 56q-59 -59 -59 -109q0 -21 11 -37.5t34.5 -26.5t48.5 -16.5t65 -9.5t70.5 -4t77.5 -2q80 -2 138 -9t115.5 -25t93 -48.5t57.5 -81.5t22 -121q0 -90 -34.5 -155.5t-98 -104t-144.5 -56.5t-182 -18zM555 463 q86 0 138 55t52 141q0 88 -51.5 145.5t-138.5 57.5q-86 0 -138 -57.5t-52 -145.5q0 -86 52 -141t138 -55zM559 -293q57 0 104 7t90 23.5t67 48.5t24 77q0 51 -35.5 80t-88.5 38t-136 9q-125 0 -178 6l-152 -119q1 -16 9.5 -35t31 -44t54.5 -44.5t87 -33t123 -13.5z" />
<glyph unicode="&#x126;" horiz-adv-x="1433" d="M1356 1165v-102h-103v-1063h-200v616h-672v-616h-201v1063h-102v102h102v248h201v-248h672v248h200v-248h103zM1053 797v266h-672v-266h672z" />
<glyph unicode="&#x127;" horiz-adv-x="1165" d="M664 1018q76 0 137.5 -23t102.5 -61.5t68.5 -92.5t39.5 -114t12 -127v-600h-190v584q0 250 -189 250q-109 0 -189.5 -77t-86.5 -182v-575h-193v1141h-168v94h168v178h193v-178h274v-94h-274v-279q52 74 130 115t165 41z" />
<glyph unicode="&#x128;" horiz-adv-x="546" d="M430 1550q-58 0 -108 24t-79 52t-66 52t-73 24q-91 0 -88 -137h-129q0 121 55 190.5t158 69.5q64 0 116.5 -24.5t81 -53.5t63.5 -53.5t69 -24.5q50 0 71 38.5t21 111.5h137q0 -130 -59.5 -199.5t-169.5 -69.5zM174 0v1413h199v-1413h-199z" />
<glyph unicode="&#x129;" horiz-adv-x="522" d="M418 1139q-48 0 -89 15.5t-69.5 37.5t-54.5 44.5t-54.5 38t-58.5 15.5q-91 0 -88 -137h-129q0 121 55 190.5t158 69.5q64 0 116.5 -24.5t81 -53.5t63.5 -53.5t69 -24.5q50 0 71 38.5t21 111.5h137q0 -130 -59 -199t-170 -69zM168 0v999h188v-999h-188z" />
<glyph unicode="&#x12a;" horiz-adv-x="546" d="M0 1587v131h547v-131h-547zM174 0v1413h199v-1413h-199z" />
<glyph unicode="&#x12b;" horiz-adv-x="522" d="M-10 1174v131h547v-131h-547zM168 0v999h188v-999h-188z" />
<glyph unicode="&#x12e;" horiz-adv-x="546" d="M350 -266l103 -68q-79 -117 -211 -117q-92 0 -150.5 56t-58.5 149q0 54 23 101t58 76.5t60 45t45 23.5h-45v1413h199v-1413q-9 -3 -26.5 -10t-54 -28t-66 -45.5t-53 -62.5t-23.5 -79q0 -50 23.5 -76.5t59.5 -26.5q73 0 117 62z" />
<glyph unicode="&#x12f;" horiz-adv-x="522" d="M373 1413v-207h-211v207h211zM336 -266l100 -68q-75 -117 -209 -117q-92 0 -151.5 56.5t-59.5 148.5q0 44 16.5 84t39 66t51 48t47 32t33.5 16h-35v999h188v-999q-8 -3 -25.5 -10.5t-54 -28t-66 -45t-52.5 -62.5t-23 -79q0 -50 24 -76.5t60 -26.5q70 0 117 62z" />
<glyph unicode="&#x130;" horiz-adv-x="546" d="M272 1571q-58 0 -97.5 40t-39.5 99q0 58 39.5 97.5t97.5 39.5q59 0 99.5 -39.5t40.5 -97.5t-40.5 -98.5t-99.5 -40.5zM174 0v1413h199v-1413h-199z" />
<glyph unicode="&#x131;" horiz-adv-x="522" d="M168 0v999h188v-999h-188z" />
<glyph unicode="&#x136;" horiz-adv-x="1415" d="M180 0v1413h201v-788l741 788h262l-546 -567l569 -846h-242l-465 711l-319 -332v-379h-201zM469 -449l127 338h221l-231 -338h-117z" />
<glyph unicode="&#x137;" horiz-adv-x="1083" d="M180 0v1413h191v-899l415 485h244l-348 -376l401 -623h-223l-303 502l-186 -209v-293h-191zM391 -449l127 338h221l-231 -338h-117z" />
<glyph unicode="&#x138;" horiz-adv-x="1087" d="M180 0v999h191v-477l415 477h244l-348 -376l401 -623h-225l-301 500l-186 -209v-291h-191z" />
<glyph unicode="&#x139;" horiz-adv-x="1036" d="M193 1538l219 289h209l-283 -289h-145zM180 0v1413h201v-1229h604v-184h-805z" />
<glyph unicode="&#x13a;" horiz-adv-x="575" d="M178 1538l219 289h209l-282 -289h-146zM365 -20q-101 0 -144 54t-43 167v1212h191v-1202q0 -20 14.5 -42t50.5 -22q16 0 36 2.5t32 5.5l12 3v-158q-77 -20 -149 -20z" />
<glyph unicode="&#x13b;" horiz-adv-x="1036" d="M180 0v1413h201v-1229h604v-184h-805zM287 -449l127 338h221l-232 -338h-116z" />
<glyph unicode="&#x13c;" horiz-adv-x="575" d="M365 -20q-101 0 -144 54t-43 167v1212h191v-1202q0 -20 14.5 -42t50.5 -22q16 0 36 2.5t32 5.5l12 3v-158q-77 -20 -149 -20zM147 -449l127 338h222l-232 -338h-117z" />
<glyph unicode="&#x13d;" horiz-adv-x="1036" d="M662 1004l106 409h221l-211 -409h-116zM180 0v1413h201v-1229h604v-184h-805z" />
<glyph unicode="&#x13e;" horiz-adv-x="661" d="M442 1004l107 409h221l-211 -409h-117zM365 -20q-101 0 -144 54t-43 167v1212h191v-1202q0 -20 14.5 -42t50.5 -22q16 0 36 2.5t32 5.5l12 3v-158q-77 -20 -149 -20z" />
<glyph unicode="&#x141;" horiz-adv-x="1036" d="M381 184h604v-184h-805v449l-133 -152h-149l282 319v797h201v-571l135 153h150l-285 -321v-490z" />
<glyph unicode="&#x142;" horiz-adv-x="575" d="M369 211q0 -20 14.5 -42t50.5 -22q16 0 36 2.5t32 5.5l12 3v-158q-77 -20 -149 -20q-101 0 -144 54t-43 167v248l-125 -142h-149l274 309v797h191v-582l153 175h150l-303 -342v-453z" />
<glyph unicode="&#x143;" horiz-adv-x="1394" d="M596 1538l219 289h209l-283 -289h-145zM180 0v1413h236l602 -1126v1126h196v-1413h-237l-602 1126v-1126h-195z" />
<glyph unicode="&#x144;" d="M481 1124l219 289h209l-282 -289h-146zM176 0v999h193v-141q51 75 133 116.5t170 41.5q92 0 162 -33.5t111 -92t61 -130t20 -154.5v-606h-192v582q0 254 -189 254q-113 0 -194.5 -83t-81.5 -196v-557h-193z" />
<glyph unicode="&#x145;" horiz-adv-x="1394" d="M180 0v1413h236l602 -1126v1126h196v-1413h-237l-602 1126v-1126h-195zM465 -449l127 338h221l-231 -338h-117z" />
<glyph unicode="&#x146;" d="M176 0v999h193v-141q51 75 133 116.5t170 41.5q92 0 162 -33.5t111 -92t61 -130t20 -154.5v-606h-192v582q0 254 -189 254q-113 0 -194.5 -83t-81.5 -196v-557h-193zM352 -449l127 338h221l-231 -338h-117z" />
<glyph unicode="&#x147;" horiz-adv-x="1394" d="M696 1495l-325 332h168l157 -172l160 172h168zM180 0v1413h236l602 -1126v1126h196v-1413h-237l-602 1126v-1126h-195z" />
<glyph unicode="&#x148;" d="M584 1081l-326 332h168l158 -172l159 172h168zM176 0v999h193v-141q51 75 133 116.5t170 41.5q92 0 162 -33.5t111 -92t61 -130t20 -154.5v-606h-192v582q0 254 -189 254q-113 0 -194.5 -83t-81.5 -196v-557h-193z" />
<glyph unicode="&#x14a;" horiz-adv-x="1392" d="M813 -369v160h55q91 0 129 49t15 101l-637 1187v-1128h-197v1413h236l604 -1128v1128h194v-1413q0 -369 -299 -369h-100z" />
<glyph unicode="&#x14b;" horiz-adv-x="1173" d="M631 -369v160h55q34 0 60.5 10.5t41.5 30t24.5 37.5t13 41.5t4.5 34t1 22.5v615q0 258 -188 258q-115 0 -196.5 -84t-81.5 -197v-559h-189v999h189v-145q52 77 133.5 119.5t169.5 42.5q92 0 161.5 -33.5t110 -92t60.5 -130t20 -154.5v-692q0 -13 -1 -26t-6.5 -43 t-15.5 -55.5t-32 -56.5t-51 -52t-76.5 -35.5t-106.5 -14.5h-100z" />
<glyph unicode="&#x14c;" horiz-adv-x="1525" d="M489 1587v131h547v-131h-547zM764 -20q-131 0 -240 38t-185 105t-128.5 159t-77 199t-24.5 226t24.5 226t77 199t128.5 159t185 105t240 38q162 0 289 -58t205.5 -159.5t118.5 -230.5t40 -279t-40 -279t-118.5 -230.5t-205.5 -159.5t-289 -58zM764 160q95 0 171 29.5 t127.5 80t86 120.5t50 149t15.5 168q0 112 -25.5 207.5t-77.5 173t-141 121.5t-206 44q-95 0 -171.5 -29t-128 -79.5t-86 -120.5t-50 -149t-15.5 -168t15.5 -168t50 -149t86 -120.5t128 -80t171.5 -29.5z" />
<glyph unicode="&#x14d;" d="M311 1174v131h547v-131h-547zM584 -20q-216 0 -356 149.5t-140 366.5t140 366.5t356 149.5t355.5 -149.5t139.5 -366.5t-139.5 -366.5t-355.5 -149.5zM584 145q74 0 130.5 28.5t89 78.5t48.5 111t16 133t-16 133t-48.5 110.5t-89 78t-130.5 28.5t-130.5 -28.5t-89.5 -78 t-49 -110.5t-16 -133t16 -133t49 -111t89.5 -78.5t130.5 -28.5z" />
<glyph unicode="&#x150;" horiz-adv-x="1525" d="M492 1524l219 303h196l-270 -303h-145zM825 1524l219 303h211l-284 -303h-146zM764 -20q-131 0 -240 38t-185 105t-128.5 159t-77 199t-24.5 226t24.5 226t77 199t128.5 159t185 105t240 38q162 0 289 -58t205.5 -159.5t118.5 -230.5t40 -279t-40 -279t-118.5 -230.5 t-205.5 -159.5t-289 -58zM764 160q95 0 171 29.5t127.5 80t86 120.5t50 149t15.5 168q0 112 -25.5 207.5t-77.5 173t-141 121.5t-206 44q-95 0 -171.5 -29t-128 -79.5t-86 -120.5t-50 -149t-15.5 -168t15.5 -168t50 -149t86 -120.5t128 -80t171.5 -29.5z" />
<glyph unicode="&#x151;" d="M311 1110l219 303h197l-270 -303h-146zM645 1110l219 303h211l-284 -303h-146zM584 -20q-216 0 -356 149.5t-140 366.5t140 366.5t356 149.5t355.5 -149.5t139.5 -366.5t-139.5 -366.5t-355.5 -149.5zM584 145q74 0 130.5 28.5t89 78.5t48.5 111t16 133t-16 133 t-48.5 110.5t-89 78t-130.5 28.5t-130.5 -28.5t-89.5 -78t-49 -110.5t-16 -133t16 -133t49 -111t89.5 -78.5t130.5 -28.5z" />
<glyph unicode="&#x152;" horiz-adv-x="2254" d="M754 -20q-131 0 -240 38t-185 105t-129 159t-77.5 199t-24.5 226t24.5 226t77.5 199t129 159t185 105t240 38q315 0 454 -230v209h949v-180h-748v-436h659v-181h-659v-432h748v-184h-949v209q-140 -229 -454 -229zM754 164q118 0 207 43.5t142 120t79 172t26 207.5 t-26 207t-79 171.5t-142 120t-207 43.5q-95 0 -171.5 -29t-129 -78.5t-87.5 -119t-51 -148t-16 -167.5t16 -167.5t51 -148t87.5 -119.5t129 -79t171.5 -29z" />
<glyph unicode="&#x153;" horiz-adv-x="1820" d="M571 -20q-143 0 -257 70t-176 187.5t-62 258.5t62 258.5t176 187.5t257 70q121 0 216.5 -52t156.5 -143q120 195 352 195q100 0 178 -29t127.5 -77.5t81.5 -117t45 -142t13 -157.5l-4 -53h-693q6 -119 77.5 -195.5t195.5 -76.5q87 0 151 23.5t119 80.5l133 -112 q-84 -88 -181 -128t-220 -40q-128 0 -222.5 50.5t-148.5 139.5q-63 -94 -159 -146t-218 -52zM1047 582h507q-6 124 -71 194t-187 70q-114 0 -176.5 -73.5t-72.5 -190.5zM569 147q98 0 164.5 49t94.5 125.5t28 174.5q0 73 -16 134t-49 110t-89.5 76.5t-130.5 27.5t-130 -27.5 t-89 -76.5t-49 -110t-16 -134q0 -74 16 -135.5t48.5 -110t88 -76t129.5 -27.5z" />
<glyph unicode="&#x154;" horiz-adv-x="1191" d="M496 1538l219 289h209l-283 -289h-145zM180 -2v1413h428q129 0 233.5 -47t167 -140t62.5 -216q0 -134 -80 -231.5t-211 -133.5l387 -645h-229l-356 620h-201v-620h-201zM383 793h250q109 5 175 61.5t66 153.5q0 105 -72 165t-192 60h-227v-440z" />
<glyph unicode="&#x155;" horiz-adv-x="772" d="M299 1124l219 289h209l-283 -289h-145zM164 0v999h190v-163q37 84 110 131t152 47q49 0 102 -14.5t89 -41.5l-78 -157q-49 41 -123 41q-118 0 -186 -114.5t-68 -287.5v-440h-188z" />
<glyph unicode="&#x156;" horiz-adv-x="1191" d="M180 -2v1413h428q129 0 233.5 -47t167 -140t62.5 -216q0 -134 -80 -231.5t-211 -133.5l387 -645h-229l-356 620h-201v-620h-201zM383 793h250q109 5 175 61.5t66 153.5q0 105 -72 165t-192 60h-227v-440zM438 -449l127 338h221l-231 -338h-117z" />
<glyph unicode="&#x157;" horiz-adv-x="772" d="M164 0v999h190v-163q37 84 110 131t152 47q49 0 102 -14.5t89 -41.5l-78 -157q-49 41 -123 41q-118 0 -186 -114.5t-68 -287.5v-440h-188zM29 -449l127 338h221l-232 -338h-116z" />
<glyph unicode="&#x158;" horiz-adv-x="1191" d="M596 1495l-326 332h168l158 -172l160 172h168zM180 -2v1413h428q129 0 233.5 -47t167 -140t62.5 -216q0 -134 -80 -231.5t-211 -133.5l387 -645h-229l-356 620h-201v-620h-201zM383 793h250q109 5 175 61.5t66 153.5q0 105 -72 165t-192 60h-227v-440z" />
<glyph unicode="&#x159;" horiz-adv-x="772" d="M399 1081l-325 332h168l157 -172l160 172h168zM164 0v999h190v-163q37 84 110 131t152 47q49 0 102 -14.5t89 -41.5l-78 -157q-49 41 -123 41q-118 0 -186 -114.5t-68 -287.5v-440h-188z" />
<glyph unicode="&#x15a;" horiz-adv-x="1118" d="M459 1538l219 289h209l-283 -289h-145zM580 -16q-124 0 -230.5 42t-184 133t-97.5 218l194 53q13 -127 101.5 -194.5t216.5 -67.5q123 0 192.5 57t69.5 170q0 49 -23.5 89.5t-62.5 69.5t-90 54.5t-107.5 49.5t-113 49.5t-107.5 59t-90 73.5t-62.5 97.5t-23.5 127.5 q0 164 118 266.5t287 102.5q281 0 412 -234l-160 -100q-41 77 -107.5 118.5t-144.5 41.5q-84 0 -144.5 -52.5t-60.5 -132.5q0 -59 37.5 -105.5t97.5 -77.5t132.5 -61t145 -66t132.5 -81.5t97.5 -118t37.5 -166.5q0 -188 -132 -301.5t-330 -113.5z" />
<glyph unicode="&#x15b;" horiz-adv-x="894" d="M344 1124l219 289h209l-283 -289h-145zM459 -20q-141 0 -248.5 76t-142.5 186l155 73q26 -73 86 -122.5t146 -49.5q82 0 133 38.5t51 105.5q0 44 -29 73.5t-75 45.5t-102 29.5t-112 32.5t-102 47t-75 81t-29 127q0 133 99.5 212t234.5 79q122 0 211 -57.5t139 -147.5 l-142 -80q-68 125 -208 125q-68 0 -111 -31t-43 -86q0 -38 29 -63t75.5 -40t103 -28.5t113 -34.5t103 -52t75.5 -87.5t29 -134.5q0 -100 -53.5 -174t-134.5 -108.5t-176 -34.5z" />
<glyph unicode="&#x15e;" horiz-adv-x="1118" d="M1042 399q0 -177 -118 -289t-301 -124l-78 -113q186 -51 186 -170q0 -85 -62 -144t-141 -59q-66 0 -115.5 37t-72.5 94l109 52q6 -27 27 -45.5t52 -18.5t55.5 22.5t24.5 55.5q0 56 -82 80l-129 39l95 174q-163 23 -280.5 122.5t-143.5 264.5l194 53q13 -127 101.5 -194.5 t216.5 -67.5q123 0 192.5 57t69.5 170q0 49 -23.5 89.5t-62.5 69.5t-90 54.5t-107.5 49.5t-113 49.5t-107.5 59t-90 73.5t-62.5 97.5t-23.5 127.5q0 164 118 266.5t287 102.5q281 0 412 -234l-160 -100q-41 77 -107.5 118.5t-144.5 41.5q-84 0 -144.5 -52.5t-60.5 -132.5 q0 -59 37.5 -105.5t97.5 -77.5t132.5 -61t145 -66t132.5 -81.5t97.5 -118t37.5 -166.5z" />
<glyph unicode="&#x15f;" horiz-adv-x="894" d="M823 297q0 -121 -74.5 -201t-189.5 -106l-82 -117q187 -51 187 -170q0 -85 -62 -144t-141 -59q-66 0 -116 37t-73 94l109 52q6 -27 27.5 -45.5t52.5 -18.5t55.5 22.5t24.5 55.5q0 56 -82 80l-129 39l90 166q-128 10 -223.5 83.5t-128.5 176.5l155 73q26 -73 86 -122.5 t146 -49.5q82 0 133 38.5t51 105.5q0 44 -29 73.5t-75 45.5t-102 29.5t-112 32.5t-102 47t-75 81t-29 127q0 133 99.5 212t234.5 79q122 0 211 -57.5t139 -147.5l-142 -80q-68 125 -208 125q-68 0 -111 -31t-43 -86q0 -38 29 -63t75.5 -40t103 -28.5t113 -34.5t103 -52 t75.5 -87.5t29 -134.5z" />
<glyph unicode="&#x160;" horiz-adv-x="1118" d="M559 1495l-326 332h168l158 -172l160 172h168zM580 -16q-124 0 -230.5 42t-184 133t-97.5 218l194 53q13 -127 101.5 -194.5t216.5 -67.5q123 0 192.5 57t69.5 170q0 49 -23.5 89.5t-62.5 69.5t-90 54.5t-107.5 49.5t-113 49.5t-107.5 59t-90 73.5t-62.5 97.5 t-23.5 127.5q0 164 118 266.5t287 102.5q281 0 412 -234l-160 -100q-41 77 -107.5 118.5t-144.5 41.5q-84 0 -144.5 -52.5t-60.5 -132.5q0 -59 37.5 -105.5t97.5 -77.5t132.5 -61t145 -66t132.5 -81.5t97.5 -118t37.5 -166.5q0 -188 -132 -301.5t-330 -113.5z" />
<glyph unicode="&#x161;" horiz-adv-x="894" d="M444 1081l-325 332h168l157 -172l160 172h168zM459 -20q-141 0 -248.5 76t-142.5 186l155 73q26 -73 86 -122.5t146 -49.5q82 0 133 38.5t51 105.5q0 44 -29 73.5t-75 45.5t-102 29.5t-112 32.5t-102 47t-75 81t-29 127q0 133 99.5 212t234.5 79q122 0 211 -57.5 t139 -147.5l-142 -80q-68 125 -208 125q-68 0 -111 -31t-43 -86q0 -38 29 -63t75.5 -40t103 -28.5t113 -34.5t103 -52t75.5 -87.5t29 -134.5q0 -100 -53.5 -174t-134.5 -108.5t-176 -34.5z" />
<glyph unicode="&#x162;" horiz-adv-x="1159" d="M680 0h-27l-88 -127q187 -51 187 -170q0 -85 -62 -144t-141 -59q-66 0 -116 37t-73 94l109 52q6 -27 27.5 -45.5t52.5 -18.5t55.5 22.5t24.5 55.5q0 56 -82 80l-129 39l100 184h-39v1239h-463v174h1127v-174h-463v-1239z" />
<glyph unicode="&#x163;" horiz-adv-x="704" d="M471 -127q186 -51 186 -170q0 -85 -61.5 -144t-140.5 -59q-66 0 -116 37t-73 94l109 52q6 -27 27.5 -45.5t52.5 -18.5t55.5 22.5t24.5 55.5q0 56 -82 80l-129 39l92 170q-100 20 -151.5 94t-51.5 188v566h-158v165h158v236l186 154v-390h258v-165h-258v-568 q0 -119 107 -119q37 0 71.5 6.5t50.5 12.5l15 6v-168q-37 -14 -96 -20z" />
<glyph unicode="&#x164;" horiz-adv-x="1159" d="M580 1495l-326 332h168l158 -172l159 172h168zM479 0v1239h-463v174h1127v-174h-463v-1239h-201z" />
<glyph unicode="&#x165;" horiz-adv-x="702" d="M516 1120l127 410h221l-233 -410h-115zM477 -20q-135 0 -201.5 77.5t-66.5 210.5v566h-158v165h160v236l184 154v-390h258v-165h-258v-568q0 -119 103 -119q41 0 76 6.5t50 12.5l15 6v-168q-58 -24 -162 -24z" />
<glyph unicode="&#x166;" horiz-adv-x="1159" d="M1143 1239h-463v-485h217v-95h-217v-659h-201v659h-217v95h217v485h-463v174h1127v-174z" />
<glyph unicode="&#x167;" horiz-adv-x="704" d="M672 453h-273v-187q0 -119 107 -119q37 0 71.5 6.5t50.5 12.5l15 6v-168q-64 -24 -156 -24q-135 0 -204.5 77t-69.5 211v185h-176v94h176v287h-158v165h158v236l186 154v-390h258v-165h-258v-287h273v-94z" />
<glyph unicode="&#x168;" horiz-adv-x="1320" d="M817 1550q-48 0 -89 15.5t-69.5 38t-54 45t-54 38t-58.5 15.5q-92 0 -89 -137h-129q0 121 55 190.5t158 69.5q64 0 116.5 -24.5t81 -53.5t63.5 -53.5t69 -24.5q50 0 71 38.5t21 111.5h138q0 -130 -59.5 -199.5t-170.5 -69.5zM662 -20q-133 0 -232.5 42.5t-160 122 t-90 185.5t-29.5 239v844h198v-833q0 -97 15 -168.5t50 -128t97.5 -85t151.5 -28.5q90 0 152.5 28.5t97.5 85t50 128t15 168.5v833h199v-833q0 -137 -30 -245.5t-91 -188.5t-160.5 -123t-232.5 -43z" />
<glyph unicode="&#x169;" horiz-adv-x="1175" d="M743 1139q-48 0 -89 15.5t-69.5 37.5t-54 44.5t-54 38t-58.5 15.5q-91 0 -88 -137h-129q0 121 55 190.5t158 69.5q53 0 96.5 -16t72 -39t53.5 -46t52 -39t55 -16q93 0 93 150h137q0 -130 -59.5 -199t-170.5 -69zM510 -23q-75 0 -135.5 23.5t-101 64t-68 96t-39.5 117 t-12 130.5v591h192v-587q0 -262 186 -262q113 0 196 86.5t83 199.5v563h193v-999h-193v145q-42 -70 -124 -119t-177 -49z" />
<glyph unicode="&#x16a;" horiz-adv-x="1320" d="M387 1587v131h547v-131h-547zM662 -20q-133 0 -232.5 42.5t-160 122t-90 185.5t-29.5 239v844h198v-833q0 -97 15 -168.5t50 -128t97.5 -85t151.5 -28.5q90 0 152.5 28.5t97.5 85t50 128t15 168.5v833h199v-833q0 -137 -30 -245.5t-91 -188.5t-160.5 -123t-232.5 -43z " />
<glyph unicode="&#x16b;" horiz-adv-x="1175" d="M315 1174v131h547v-131h-547zM510 -23q-75 0 -135.5 23.5t-101 64t-68 96t-39.5 117t-12 130.5v591h192v-587q0 -262 186 -262q113 0 196 86.5t83 199.5v563h193v-999h-193v145q-42 -70 -124 -119t-177 -49z" />
<glyph unicode="&#x16e;" horiz-adv-x="1320" d="M659 1489q-88 0 -148 62t-60 149q0 88 60 148.5t148 60.5q87 0 149 -60.5t62 -148.5t-61.5 -149.5t-149.5 -61.5zM659 1599q43 0 72 29.5t29 73.5q0 42 -28 69t-73 27q-44 0 -71 -26.5t-27 -69.5q0 -44 28.5 -73.5t69.5 -29.5zM662 -20q-133 0 -232.5 42.5t-160 122 t-90 185.5t-29.5 239v844h198v-833q0 -97 15 -168.5t50 -128t97.5 -85t151.5 -28.5q90 0 152.5 28.5t97.5 85t50 128t15 168.5v833h199v-833q0 -137 -30 -245.5t-91 -188.5t-160.5 -123t-232.5 -43z" />
<glyph unicode="&#x16f;" horiz-adv-x="1175" d="M586 1075q-88 0 -148.5 62t-60.5 149q0 88 60.5 148.5t148.5 60.5q87 0 149 -60.5t62 -148.5t-61.5 -149.5t-149.5 -61.5zM586 1186q43 0 71.5 29t28.5 73q0 42 -27.5 69t-72.5 27q-44 0 -71.5 -26.5t-27.5 -69.5q0 -44 28.5 -73t70.5 -29zM510 -23q-75 0 -135.5 23.5 t-101 64t-68 96t-39.5 117t-12 130.5v591h192v-587q0 -262 186 -262q113 0 196 86.5t83 199.5v563h193v-999h-193v145q-42 -70 -124 -119t-177 -49z" />
<glyph unicode="&#x170;" horiz-adv-x="1320" d="M389 1524l219 303h197l-270 -303h-146zM723 1524l219 303h211l-285 -303h-145zM662 -20q-133 0 -232.5 42.5t-160 122t-90 185.5t-29.5 239v844h198v-833q0 -97 15 -168.5t50 -128t97.5 -85t151.5 -28.5q90 0 152.5 28.5t97.5 85t50 128t15 168.5v833h199v-833 q0 -137 -30 -245.5t-91 -188.5t-160.5 -123t-232.5 -43z" />
<glyph unicode="&#x171;" horiz-adv-x="1175" d="M317 1110l220 303h196l-270 -303h-146zM651 1110l219 303h211l-284 -303h-146zM510 -23q-75 0 -135.5 23.5t-101 64t-68 96t-39.5 117t-12 130.5v591h192v-587q0 -262 186 -262q113 0 196 86.5t83 199.5v563h193v-999h-193v145q-42 -70 -124 -119t-177 -49z" />
<glyph unicode="&#x172;" horiz-adv-x="1320" d="M977 1413h199v-833q0 -219 -76.5 -366t-233.5 -204q-67 -31 -120.5 -83t-53.5 -120q0 -50 24 -76t60 -26q73 0 117 62l102 -68q-79 -117 -211 -117q-92 0 -150.5 56t-58.5 149q0 110 99 193h-12q-133 0 -232.5 42.5t-160 122t-90 185.5t-29.5 239v844h198v-833 q0 -97 15 -168.5t50 -128t97.5 -85t151.5 -28.5q90 0 152.5 28.5t97.5 85t50 128t15 168.5v833z" />
<glyph unicode="&#x173;" horiz-adv-x="1175" d="M981 -266l102 -68q-79 -117 -211 -117q-92 0 -150 56t-58 149q0 54 23 101t58 76.5t60 45t45 23.5h-39v145q-42 -70 -124 -119t-177 -49q-75 0 -135.5 23.5t-101 64t-68 96t-39.5 117t-12 130.5v591h192v-587q0 -262 186 -262q113 0 196 86.5t83 199.5v563h193v-999 q-9 -3 -26.5 -10t-54.5 -28t-66.5 -45.5t-53 -62.5t-23.5 -79q0 -50 24 -76.5t60 -26.5q73 0 117 62z" />
<glyph unicode="&#x174;" horiz-adv-x="1929" d="M639 1497l326 354l327 -354h-168l-159 180l-158 -180h-168zM432 0l-407 1413h206l320 -1141l336 1018h155l336 -1018l320 1141h207l-408 -1413h-205l-327 971l-328 -971h-205z" />
<glyph unicode="&#x175;" horiz-adv-x="1445" d="M397 1098l326 354l328 -354h-168l-160 180l-158 -180h-168zM328 -2l-293 1001h203l188 -727l213 727h168l211 -725l190 725h203l-293 -999h-178l-217 743l-219 -745h-176z" />
<glyph unicode="&#x176;" horiz-adv-x="1337" d="M342 1511l326 355l327 -355h-168l-159 181l-158 -181h-168zM569 0v553l-553 860h234l420 -674l417 674h234l-553 -860v-553h-199z" />
<glyph unicode="&#x177;" horiz-adv-x="1019" d="M184 1098l326 354l328 -354h-168l-160 180l-158 -180h-168zM244 -430l172 446l-385 983h209l274 -763l272 763h209l-551 -1429h-200z" />
<glyph unicode="&#x178;" horiz-adv-x="1337" d="M410 1585v180h178v-180h-178zM750 1585v180h178v-180h-178zM569 0v553l-553 860h234l420 -674l417 674h234l-553 -860v-553h-199z" />
<glyph unicode="&#x179;" horiz-adv-x="1277" d="M539 1538l219 289h209l-283 -289h-145zM80 0v147l848 1086h-803v180h1067v-156l-846 -1075h846v-182h-1112z" />
<glyph unicode="&#x17a;" horiz-adv-x="935" d="M367 1124l219 289h209l-283 -289h-145zM55 0v135l584 699h-555v165h797v-147l-574 -690h574v-162h-826z" />
<glyph unicode="&#x17b;" horiz-adv-x="1277" d="M637 1571q-58 0 -97.5 40t-39.5 99q0 58 39 97.5t98 39.5t99 -39.5t40 -97.5t-40 -98.5t-99 -40.5zM80 0v147l848 1086h-803v180h1067v-156l-846 -1075h846v-182h-1112z" />
<glyph unicode="&#x17c;" horiz-adv-x="935" d="M467 1157q-58 0 -97.5 40t-39.5 99t39.5 98.5t97.5 39.5q59 0 99 -40t40 -98t-40 -98.5t-99 -40.5zM55 0v135l584 699h-555v165h797v-147l-574 -690h574v-162h-826z" />
<glyph unicode="&#x17d;" horiz-adv-x="1277" d="M639 1495l-326 332h168l158 -172l160 172h168zM80 0v147l848 1086h-803v180h1067v-156l-846 -1075h846v-182h-1112z" />
<glyph unicode="&#x17e;" horiz-adv-x="935" d="M467 1081l-326 332h168l158 -172l160 172h168zM55 0v135l584 699h-555v165h797v-147l-574 -690h574v-162h-826z" />
<glyph unicode="&#x192;" horiz-adv-x="690" d="M-117 -457v164q184 0 261 68.5t77 234.5v828h-178v161h178v146q0 131 82 217t199 86q115 0 219 -88l-107 -125q-57 49 -112 49q-49 0 -83 -35t-34 -104v-146h305v-161h-305v-828q0 -227 -131.5 -347t-370.5 -120z" />
<glyph unicode="&#x1cd;" horiz-adv-x="1314" d="M657 1495l-325 332h168l157 -172l160 172h168zM37 0l545 1413h153l543 -1413h-217l-109 307h-587l-109 -307h-219zM432 483h455l-228 635z" />
<glyph unicode="&#x1ce;" horiz-adv-x="1069" d="M535 1081l-326 332h168l158 -172l159 172h168zM430 -20q-139 0 -237.5 84.5t-98.5 220.5q0 80 28.5 138.5t81 92.5t120 50t151.5 16h289q0 131 -55.5 199.5t-180.5 68.5q-78 0 -144 -41t-103 -100l-144 104q75 102 171.5 152.5t228.5 50.5q191 0 298 -109.5t107 -294.5 v-612h-151l-19 162q-64 -96 -145.5 -139t-196.5 -43zM471 145q121 0 207 89t86 202h-275q-89 0 -144.5 -41.5t-55.5 -109.5t51.5 -104t130.5 -36z" />
<glyph unicode="&#x1cf;" horiz-adv-x="546" d="M272 1495l-325 332h168l157 -172l160 172h168zM174 0v1413h199v-1413h-199z" />
<glyph unicode="&#x1d0;" horiz-adv-x="522" d="M262 1081l-325 332h167l158 -172l160 172h168zM168 0v999h188v-999h-188z" />
<glyph unicode="&#x1d1;" horiz-adv-x="1525" d="M762 1495l-326 332h168l158 -172l160 172h168zM764 -20q-131 0 -240 38t-185 105t-128.5 159t-77 199t-24.5 226t24.5 226t77 199t128.5 159t185 105t240 38q162 0 289 -58t205.5 -159.5t118.5 -230.5t40 -279t-40 -279t-118.5 -230.5t-205.5 -159.5t-289 -58zM764 160 q95 0 171 29.5t127.5 80t86 120.5t50 149t15.5 168q0 112 -25.5 207.5t-77.5 173t-141 121.5t-206 44q-95 0 -171.5 -29t-128 -79.5t-86 -120.5t-50 -149t-15.5 -168t15.5 -168t50 -149t86 -120.5t128 -80t171.5 -29.5z" />
<glyph unicode="&#x1d2;" d="M584 1081l-326 332h168l158 -172l159 172h168zM584 -20q-216 0 -356 149.5t-140 366.5t140 366.5t356 149.5t355.5 -149.5t139.5 -366.5t-139.5 -366.5t-355.5 -149.5zM584 145q74 0 130.5 28.5t89 78.5t48.5 111t16 133t-16 133t-48.5 110.5t-89 78t-130.5 28.5 t-130.5 -28.5t-89.5 -78t-49 -110.5t-16 -133t16 -133t49 -111t89.5 -78.5t130.5 -28.5z" />
<glyph unicode="&#x1d3;" horiz-adv-x="1320" d="M659 1495l-325 332h168l157 -172l160 172h168zM662 -20q-133 0 -232.5 42.5t-160 122t-90 185.5t-29.5 239v844h198v-833q0 -97 15 -168.5t50 -128t97.5 -85t151.5 -28.5q90 0 152.5 28.5t97.5 85t50 128t15 168.5v833h199v-833q0 -137 -30 -245.5t-91 -188.5 t-160.5 -123t-232.5 -43z" />
<glyph unicode="&#x1d4;" horiz-adv-x="1175" d="M588 1081l-326 332h168l158 -172l160 172h167zM510 -23q-75 0 -135.5 23.5t-101 64t-68 96t-39.5 117t-12 130.5v591h192v-587q0 -262 186 -262q113 0 196 86.5t83 199.5v563h193v-999h-193v145q-42 -70 -124 -119t-177 -49z" />
<glyph unicode="&#x1d5;" horiz-adv-x="1320" d="M387 1929v131h547v-131h-547zM401 1585v180h179v-180h-179zM741 1585v180h179v-180h-179zM662 -20q-133 0 -232.5 42.5t-160 122t-90 185.5t-29.5 239v844h198v-833q0 -97 15 -168.5t50 -128t97.5 -85t151.5 -28.5q90 0 152.5 28.5t97.5 85t50 128t15 168.5v833h199v-833 q0 -137 -30 -245.5t-91 -188.5t-160.5 -123t-232.5 -43z" />
<glyph unicode="&#x1d6;" horiz-adv-x="1175" d="M315 1516v131h547v-131h-547zM328 1171v181h178v-181h-178zM668 1171v181h178v-181h-178zM510 -23q-75 0 -135.5 23.5t-101 64t-68 96t-39.5 117t-12 130.5v591h192v-587q0 -262 186 -262q113 0 196 86.5t83 199.5v563h193v-999h-193v145q-42 -70 -124 -119t-177 -49z " />
<glyph unicode="&#x1d7;" horiz-adv-x="1320" d="M559 1880l219 289h209l-282 -289h-146zM401 1585v180h179v-180h-179zM741 1585v180h179v-180h-179zM662 -20q-133 0 -232.5 42.5t-160 122t-90 185.5t-29.5 239v844h198v-833q0 -97 15 -168.5t50 -128t97.5 -85t151.5 -28.5q90 0 152.5 28.5t97.5 85t50 128t15 168.5v833 h199v-833q0 -137 -30 -245.5t-91 -188.5t-160.5 -123t-232.5 -43z" />
<glyph unicode="&#x1d8;" horiz-adv-x="1175" d="M487 1466l220 289h208l-282 -289h-146zM328 1171v181h178v-181h-178zM668 1171v181h178v-181h-178zM510 -23q-75 0 -135.5 23.5t-101 64t-68 96t-39.5 117t-12 130.5v591h192v-587q0 -262 186 -262q113 0 196 86.5t83 199.5v563h193v-999h-193v145q-42 -70 -124 -119 t-177 -49z" />
<glyph unicode="&#x1d9;" horiz-adv-x="1320" d="M659 1837l-325 332h168l157 -172l160 172h168zM401 1585v180h179v-180h-179zM741 1585v180h179v-180h-179zM662 -20q-133 0 -232.5 42.5t-160 122t-90 185.5t-29.5 239v844h198v-833q0 -97 15 -168.5t50 -128t97.5 -85t151.5 -28.5q90 0 152.5 28.5t97.5 85t50 128 t15 168.5v833h199v-833q0 -137 -30 -245.5t-91 -188.5t-160.5 -123t-232.5 -43z" />
<glyph unicode="&#x1da;" horiz-adv-x="1175" d="M588 1423l-326 332h168l158 -172l160 172h167zM328 1171v181h178v-181h-178zM668 1171v181h178v-181h-178zM510 -23q-75 0 -135.5 23.5t-101 64t-68 96t-39.5 117t-12 130.5v591h192v-587q0 -262 186 -262q113 0 196 86.5t83 199.5v563h193v-999h-193v145 q-42 -70 -124 -119t-177 -49z" />
<glyph unicode="&#x1db;" horiz-adv-x="1320" d="M590 1874l-268 295h208l220 -295h-160zM401 1585v180h179v-180h-179zM741 1585v180h179v-180h-179zM662 -20q-133 0 -232.5 42.5t-160 122t-90 185.5t-29.5 239v844h198v-833q0 -97 15 -168.5t50 -128t97.5 -85t151.5 -28.5q90 0 152.5 28.5t97.5 85t50 128t15 168.5v833 h199v-833q0 -137 -30 -245.5t-91 -188.5t-160.5 -123t-232.5 -43z" />
<glyph unicode="&#x1dc;" horiz-adv-x="1175" d="M518 1460l-268 295h209l219 -295h-160zM328 1171v181h178v-181h-178zM668 1171v181h178v-181h-178zM510 -23q-75 0 -135.5 23.5t-101 64t-68 96t-39.5 117t-12 130.5v591h192v-587q0 -262 186 -262q113 0 196 86.5t83 199.5v563h193v-999h-193v145q-42 -70 -124 -119 t-177 -49z" />
<glyph unicode="&#x218;" horiz-adv-x="1118" d="M580 -16q-124 0 -230.5 42t-184 133t-97.5 218l194 53q13 -127 101.5 -194.5t216.5 -67.5q123 0 192.5 57t69.5 170q0 49 -23.5 89.5t-62.5 69.5t-90 54.5t-107.5 49.5t-113 49.5t-107.5 59t-90 73.5t-62.5 97.5t-23.5 127.5q0 164 118 266.5t287 102.5q281 0 412 -234 l-160 -100q-41 77 -107.5 118.5t-144.5 41.5q-84 0 -144.5 -52.5t-60.5 -132.5q0 -59 37.5 -105.5t97.5 -77.5t132.5 -61t145 -66t132.5 -81.5t97.5 -118t37.5 -166.5q0 -188 -132 -301.5t-330 -113.5zM328 -449l127 338h221l-232 -338h-116z" />
<glyph unicode="&#x219;" horiz-adv-x="894" d="M459 -20q-141 0 -248.5 76t-142.5 186l155 73q26 -73 86 -122.5t146 -49.5q82 0 133 38.5t51 105.5q0 44 -29 73.5t-75 45.5t-102 29.5t-112 32.5t-102 47t-75 81t-29 127q0 133 99.5 212t234.5 79q122 0 211 -57.5t139 -147.5l-142 -80q-68 125 -208 125q-68 0 -111 -31 t-43 -86q0 -38 29 -63t75.5 -40t103 -28.5t113 -34.5t103 -52t75.5 -87.5t29 -134.5q0 -100 -53.5 -174t-134.5 -108.5t-176 -34.5zM260 -449l127 338h221l-231 -338h-117z" />
<glyph unicode="&#x21a;" horiz-adv-x="1159" d="M479 0v1239h-463v174h1127v-174h-463v-1239h-201zM348 -449l127 338h221l-231 -338h-117z" />
<glyph unicode="&#x21b;" horiz-adv-x="704" d="M487 -20q-135 0 -204.5 77t-69.5 211v566h-158v165h158v236l186 154v-390h258v-165h-258v-568q0 -119 107 -119q37 0 71.5 6.5t50.5 12.5l15 6v-168q-64 -24 -156 -24zM254 -449l127 338h221l-231 -338h-117z" />
<glyph unicode="&#x3c0;" horiz-adv-x="946" d="M819 -20q-94 0 -153.5 69.5t-59.5 159.5v627h-268v-836h-164v836h-82v163h760v-163h-82v-623q0 -44 18.5 -69t47.5 -25q27 0 51 16l45 -125q-52 -30 -113 -30z" />
<glyph unicode="&#x1e80;" horiz-adv-x="1929" d="M895 1518l-268 294h209l219 -294h-160zM432 0l-407 1413h206l320 -1141l336 1018h155l336 -1018l320 1141h207l-408 -1413h-205l-327 971l-328 -971h-205z" />
<glyph unicode="&#x1e81;" horiz-adv-x="1445" d="M651 1118l-268 295h209l219 -295h-160zM328 -2l-293 1001h203l188 -727l213 727h168l211 -725l190 725h203l-293 -999h-178l-217 743l-219 -745h-176z" />
<glyph unicode="&#x1e82;" horiz-adv-x="1929" d="M864 1524l219 288h209l-282 -288h-146zM432 0l-407 1413h206l320 -1141l336 1018h155l336 -1018l320 1141h207l-408 -1413h-205l-327 971l-328 -971h-205z" />
<glyph unicode="&#x1e83;" horiz-adv-x="1445" d="M621 1124l219 289h209l-283 -289h-145zM328 -2l-293 1001h203l188 -727l213 727h168l211 -725l190 725h203l-293 -999h-178l-217 743l-219 -745h-176z" />
<glyph unicode="&#x1e84;" horiz-adv-x="1929" d="M705 1571v180h178v-180h-178zM1044 1571v180h179v-180h-179zM432 0l-407 1413h206l320 -1141l336 1018h155l336 -1018l320 1141h207l-408 -1413h-205l-327 971l-328 -971h-205z" />
<glyph unicode="&#x1e85;" horiz-adv-x="1445" d="M463 1171v181h178v-181h-178zM803 1171v181h178v-181h-178zM328 -2l-293 1001h203l188 -727l213 727h168l211 -725l190 725h203l-293 -999h-178l-217 743l-219 -745h-176z" />
<glyph unicode="&#x1ea4;" horiz-adv-x="1314" d="M555 1950l219 288h209l-283 -288h-145zM332 1511l325 355l328 -355h-168l-160 181l-157 -181h-168zM37 0l545 1413h153l543 -1413h-217l-109 307h-587l-109 -307h-219zM432 483h455l-228 635z" />
<glyph unicode="&#x1ea5;" horiz-adv-x="1069" d="M434 1538l219 289h209l-282 -289h-146zM209 1098l326 354l327 -354h-168l-159 180l-158 -180h-168zM430 -20q-139 0 -237.5 84.5t-98.5 220.5q0 80 28.5 138.5t81 92.5t120 50t151.5 16h289q0 131 -55.5 199.5t-180.5 68.5q-78 0 -144 -41t-103 -100l-144 104 q75 102 171.5 152.5t228.5 50.5q191 0 298 -109.5t107 -294.5v-612h-151l-19 162q-64 -96 -145.5 -139t-196.5 -43zM471 145q121 0 207 89t86 202h-275q-89 0 -144.5 -41.5t-55.5 -109.5t51.5 -104t130.5 -36z" />
<glyph unicode="&#x1ea6;" horiz-adv-x="1314" d="M586 1944l-269 294h209l219 -294h-159zM332 1511l325 355l328 -355h-168l-160 181l-157 -181h-168zM37 0l545 1413h153l543 -1413h-217l-109 307h-587l-109 -307h-219zM432 483h455l-228 635z" />
<glyph unicode="&#x1ea7;" horiz-adv-x="1069" d="M465 1532l-268 295h209l219 -295h-160zM209 1098l326 354l327 -354h-168l-159 180l-158 -180h-168zM430 -20q-139 0 -237.5 84.5t-98.5 220.5q0 80 28.5 138.5t81 92.5t120 50t151.5 16h289q0 131 -55.5 199.5t-180.5 68.5q-78 0 -144 -41t-103 -100l-144 104 q75 102 171.5 152.5t228.5 50.5q191 0 298 -109.5t107 -294.5v-612h-151l-19 162q-64 -96 -145.5 -139t-196.5 -43zM471 145q121 0 207 89t86 202h-275q-89 0 -144.5 -41.5t-55.5 -109.5t51.5 -104t130.5 -36z" />
<glyph unicode="&#x1eaa;" horiz-adv-x="1314" d="M813 1964q-58 0 -108 24t-79 52t-66 52t-73 24q-91 0 -88 -138h-129q0 121 55 190.5t158 69.5q53 0 96.5 -16t72.5 -39t54 -45.5t52 -38.5t55 -16q50 0 71 38t21 111h137q0 -130 -59 -199t-170 -69zM332 1511l325 355l328 -355h-168l-160 181l-157 -181h-168zM37 0 l545 1413h153l543 -1413h-217l-109 307h-587l-109 -307h-219zM432 483h455l-228 635z" />
<glyph unicode="&#x1eab;" horiz-adv-x="1069" d="M690 1550q-48 0 -89 15.5t-69.5 38t-54 45t-54 38t-58.5 15.5q-92 0 -89 -137h-129q0 121 55 190.5t158 69.5q64 0 116.5 -24.5t81 -53.5t63.5 -53.5t69 -24.5q50 0 71 38.5t21 111.5h138q0 -130 -59.5 -199.5t-170.5 -69.5zM209 1098l326 354l327 -354h-168l-159 180 l-158 -180h-168zM430 -20q-139 0 -237.5 84.5t-98.5 220.5q0 80 28.5 138.5t81 92.5t120 50t151.5 16h289q0 131 -55.5 199.5t-180.5 68.5q-78 0 -144 -41t-103 -100l-144 104q75 102 171.5 152.5t228.5 50.5q191 0 298 -109.5t107 -294.5v-612h-151l-19 162 q-64 -96 -145.5 -139t-196.5 -43zM471 145q121 0 207 89t86 202h-275q-89 0 -144.5 -41.5t-55.5 -109.5t51.5 -104t130.5 -36z" />
<glyph unicode="&#x1eae;" horiz-adv-x="1314" d="M555 1952l219 289h209l-283 -289h-145zM657 1556q-144 0 -226.5 71t-82.5 200h146q0 -67 47 -108.5t116 -41.5q71 0 117.5 41t46.5 109h146q0 -131 -83.5 -201t-226.5 -70zM37 0l545 1413h153l543 -1413h-217l-109 307h-587l-109 -307h-219zM432 483h455l-228 635z" />
<glyph unicode="&#x1eaf;" horiz-adv-x="1069" d="M434 1538l219 289h209l-282 -289h-146zM535 1143q-144 0 -227 70.5t-83 199.5h146q0 -67 47 -108t117 -41q71 0 117 40.5t46 108.5h146q0 -131 -83 -200.5t-226 -69.5zM430 -20q-139 0 -237.5 84.5t-98.5 220.5q0 80 28.5 138.5t81 92.5t120 50t151.5 16h289 q0 131 -55.5 199.5t-180.5 68.5q-78 0 -144 -41t-103 -100l-144 104q75 102 171.5 152.5t228.5 50.5q191 0 298 -109.5t107 -294.5v-612h-151l-19 162q-64 -96 -145.5 -139t-196.5 -43zM471 145q121 0 207 89t86 202h-275q-89 0 -144.5 -41.5t-55.5 -109.5t51.5 -104 t130.5 -36z" />
<glyph unicode="&#x1eb0;" horiz-adv-x="1314" d="M586 1946l-269 295h209l219 -295h-159zM657 1556q-144 0 -226.5 71t-82.5 200h146q0 -67 47 -108.5t116 -41.5q71 0 117.5 41t46.5 109h146q0 -131 -83.5 -201t-226.5 -70zM37 0l545 1413h153l543 -1413h-217l-109 307h-587l-109 -307h-219zM432 483h455l-228 635z" />
<glyph unicode="&#x1eb1;" horiz-adv-x="1069" d="M465 1532l-268 295h209l219 -295h-160zM535 1143q-144 0 -227 70.5t-83 199.5h146q0 -67 47 -108t117 -41q71 0 117 40.5t46 108.5h146q0 -131 -83 -200.5t-226 -69.5zM430 -20q-139 0 -237.5 84.5t-98.5 220.5q0 80 28.5 138.5t81 92.5t120 50t151.5 16h289 q0 131 -55.5 199.5t-180.5 68.5q-78 0 -144 -41t-103 -100l-144 104q75 102 171.5 152.5t228.5 50.5q191 0 298 -109.5t107 -294.5v-612h-151l-19 162q-64 -96 -145.5 -139t-196.5 -43zM471 145q121 0 207 89t86 202h-275q-89 0 -144.5 -41.5t-55.5 -109.5t51.5 -104 t130.5 -36z" />
<glyph unicode="&#x1eb4;" horiz-adv-x="1314" d="M813 1964q-58 0 -108 24t-79 52t-66 52t-73 24q-91 0 -88 -138h-129q0 121 55 190.5t158 69.5q53 0 96.5 -16t72.5 -39t54 -45.5t52 -38.5t55 -16q50 0 71 38t21 111h137q0 -130 -59 -199t-170 -69zM657 1556q-144 0 -226.5 71t-82.5 200h146q0 -67 47 -108.5t116 -41.5 q71 0 117.5 41t46.5 109h146q0 -131 -83.5 -201t-226.5 -70zM37 0l545 1413h153l543 -1413h-217l-109 307h-587l-109 -307h-219zM432 483h455l-228 635z" />
<glyph unicode="&#x1eb5;" horiz-adv-x="1069" d="M690 1552q-48 0 -89 15.5t-69.5 38t-54 45t-54 38t-58.5 15.5q-92 0 -89 -137h-129q0 121 55 190.5t158 69.5q64 0 116.5 -24.5t81 -53.5t63.5 -53.5t69 -24.5q50 0 71 38.5t21 111.5h138q0 -130 -59.5 -199.5t-170.5 -69.5zM535 1143q-144 0 -227 70.5t-83 199.5h146 q0 -67 47 -108t117 -41q71 0 117 40.5t46 108.5h146q0 -131 -83 -200.5t-226 -69.5zM430 -20q-139 0 -237.5 84.5t-98.5 220.5q0 80 28.5 138.5t81 92.5t120 50t151.5 16h289q0 131 -55.5 199.5t-180.5 68.5q-78 0 -144 -41t-103 -100l-144 104q75 102 171.5 152.5 t228.5 50.5q191 0 298 -109.5t107 -294.5v-612h-151l-19 162q-64 -96 -145.5 -139t-196.5 -43zM471 145q121 0 207 89t86 202h-275q-89 0 -144.5 -41.5t-55.5 -109.5t51.5 -104t130.5 -36z" />
<glyph unicode="&#x1ebc;" horiz-adv-x="1224" d="M770 1550q-58 0 -108 24t-79 52t-66 52t-73 24q-91 0 -88 -137h-129q0 121 55 190.5t158 69.5q64 0 116.5 -24.5t81 -53.5t63.5 -53.5t69 -24.5q50 0 71 38.5t21 111.5h137q0 -130 -59.5 -199.5t-169.5 -69.5zM180 0v1413h928v-180h-727v-436h659v-181h-659v-432h727 v-184h-928z" />
<glyph unicode="&#x1ebd;" horiz-adv-x="1060" d="M692 1139q-48 0 -89 15.5t-69.5 37.5t-54 44.5t-54 38t-58.5 15.5q-91 0 -88 -137h-129q0 121 55 190.5t157 69.5q64 0 116.5 -24.5t81 -53.5t63.5 -53.5t69 -24.5q50 0 71 38.5t21 111.5h138q0 -130 -59.5 -199t-170.5 -69zM565 -12q-115 0 -206.5 41t-149 111 t-87.5 160.5t-30 193.5t28.5 194.5t83 164.5t143.5 116t200 43q99 0 177 -29t127 -77.5t80.5 -117t44.5 -141.5t13 -158l-4 -53h-692q6 -122 75.5 -199t194.5 -77q87 0 149.5 22t118.5 78l130 -108q-83 -87 -178 -125.5t-218 -38.5zM293 582h514q-6 124 -71 195t-189 71 q-116 0 -180 -74t-74 -192z" />
<glyph unicode="&#x1ebe;" horiz-adv-x="1224" d="M512 1950l219 288h209l-283 -288h-145zM287 1511l325 355l328 -355h-168l-160 181l-157 -181h-168zM180 0v1413h928v-180h-727v-436h659v-181h-659v-432h727v-184h-928z" />
<glyph unicode="&#x1ebf;" horiz-adv-x="1060" d="M434 1538l219 289h209l-282 -289h-146zM209 1098l326 354l327 -354h-168l-159 180l-158 -180h-168zM565 -12q-115 0 -206.5 41t-149 111t-87.5 160.5t-30 193.5t28.5 194.5t83 164.5t143.5 116t200 43q99 0 177 -29t127 -77.5t80.5 -117t44.5 -141.5t13 -158l-4 -53h-692 q6 -122 75.5 -199t194.5 -77q87 0 149.5 22t118.5 78l130 -108q-83 -87 -178 -125.5t-218 -38.5zM293 582h514q-6 124 -71 195t-189 71q-116 0 -180 -74t-74 -192z" />
<glyph unicode="&#x1ec0;" horiz-adv-x="1224" d="M543 1944l-269 294h209l219 -294h-159zM287 1511l325 355l328 -355h-168l-160 181l-157 -181h-168zM180 0v1413h928v-180h-727v-436h659v-181h-659v-432h727v-184h-928z" />
<glyph unicode="&#x1ec1;" horiz-adv-x="1060" d="M465 1532l-268 295h209l219 -295h-160zM209 1098l326 354l327 -354h-168l-159 180l-158 -180h-168zM565 -12q-115 0 -206.5 41t-149 111t-87.5 160.5t-30 193.5t28.5 194.5t83 164.5t143.5 116t200 43q99 0 177 -29t127 -77.5t80.5 -117t44.5 -141.5t13 -158l-4 -53h-692 q6 -122 75.5 -199t194.5 -77q87 0 149.5 22t118.5 78l130 -108q-83 -87 -178 -125.5t-218 -38.5zM293 582h514q-6 124 -71 195t-189 71q-116 0 -180 -74t-74 -192z" />
<glyph unicode="&#x1ec4;" horiz-adv-x="1224" d="M770 1964q-58 0 -108 24t-79 52t-66 52t-73 24q-91 0 -88 -138h-129q0 121 55 190.5t158 69.5q53 0 96.5 -16t72.5 -39t54 -45.5t52 -38.5t55 -16q50 0 71 38t21 111h137q0 -130 -59 -199t-170 -69zM287 1511l325 355l328 -355h-168l-160 181l-157 -181h-168zM180 0v1413 h928v-180h-727v-436h659v-181h-659v-432h727v-184h-928z" />
<glyph unicode="&#x1ec5;" horiz-adv-x="1060" d="M692 1550q-48 0 -89 15.5t-69.5 38t-54 45t-54 38t-58.5 15.5q-91 0 -88 -137h-129q0 121 55 190.5t157 69.5q64 0 116.5 -24.5t81 -53.5t63.5 -53.5t69 -24.5q50 0 71 38.5t21 111.5h138q0 -130 -59.5 -199.5t-170.5 -69.5zM209 1098l326 354l327 -354h-168l-159 180 l-158 -180h-168zM565 -12q-115 0 -206.5 41t-149 111t-87.5 160.5t-30 193.5t28.5 194.5t83 164.5t143.5 116t200 43q99 0 177 -29t127 -77.5t80.5 -117t44.5 -141.5t13 -158l-4 -53h-692q6 -122 75.5 -199t194.5 -77q87 0 149.5 22t118.5 78l130 -108q-83 -87 -178 -125.5 t-218 -38.5zM293 582h514q-6 124 -71 195t-189 71q-116 0 -180 -74t-74 -192z" />
<glyph unicode="&#x1ed0;" horiz-adv-x="1525" d="M662 1950l219 288h209l-283 -288h-145zM436 1511l326 355l328 -355h-168l-160 181l-158 -181h-168zM764 -20q-131 0 -240 38t-185 105t-128.5 159t-77 199t-24.5 226t24.5 226t77 199t128.5 159t185 105t240 38q162 0 289 -58t205.5 -159.5t118.5 -230.5t40 -279 t-40 -279t-118.5 -230.5t-205.5 -159.5t-289 -58zM764 160q95 0 171 29.5t127.5 80t86 120.5t50 149t15.5 168q0 112 -25.5 207.5t-77.5 173t-141 121.5t-206 44q-95 0 -171.5 -29t-128 -79.5t-86 -120.5t-50 -149t-15.5 -168t15.5 -168t50 -149t86 -120.5t128 -80 t171.5 -29.5z" />
<glyph unicode="&#x1ed1;" d="M481 1538l219 289h209l-282 -289h-146zM258 1098l326 354l327 -354h-168l-159 180l-158 -180h-168zM584 -20q-216 0 -356 149.5t-140 366.5t140 366.5t356 149.5t355.5 -149.5t139.5 -366.5t-139.5 -366.5t-355.5 -149.5zM584 145q74 0 130.5 28.5t89 78.5t48.5 111 t16 133t-16 133t-48.5 110.5t-89 78t-130.5 28.5t-130.5 -28.5t-89.5 -78t-49 -110.5t-16 -133t16 -133t49 -111t89.5 -78.5t130.5 -28.5z" />
<glyph unicode="&#x1ed2;" horiz-adv-x="1525" d="M692 1944l-268 294h209l219 -294h-160zM436 1511l326 355l328 -355h-168l-160 181l-158 -181h-168zM764 -20q-131 0 -240 38t-185 105t-128.5 159t-77 199t-24.5 226t24.5 226t77 199t128.5 159t185 105t240 38q162 0 289 -58t205.5 -159.5t118.5 -230.5t40 -279 t-40 -279t-118.5 -230.5t-205.5 -159.5t-289 -58zM764 160q95 0 171 29.5t127.5 80t86 120.5t50 149t15.5 168q0 112 -25.5 207.5t-77.5 173t-141 121.5t-206 44q-95 0 -171.5 -29t-128 -79.5t-86 -120.5t-50 -149t-15.5 -168t15.5 -168t50 -149t86 -120.5t128 -80 t171.5 -29.5z" />
<glyph unicode="&#x1ed3;" d="M512 1532l-268 295h209l219 -295h-160zM258 1098l326 354l327 -354h-168l-159 180l-158 -180h-168zM584 -20q-216 0 -356 149.5t-140 366.5t140 366.5t356 149.5t355.5 -149.5t139.5 -366.5t-139.5 -366.5t-355.5 -149.5zM584 145q74 0 130.5 28.5t89 78.5t48.5 111 t16 133t-16 133t-48.5 110.5t-89 78t-130.5 28.5t-130.5 -28.5t-89.5 -78t-49 -110.5t-16 -133t16 -133t49 -111t89.5 -78.5t130.5 -28.5z" />
<glyph unicode="&#x1ed6;" horiz-adv-x="1525" d="M920 1964q-58 0 -108 24t-79 52t-66 52t-73 24q-91 0 -88 -138h-129q0 121 55 190.5t158 69.5q53 0 96.5 -16t72.5 -39t54 -45.5t52 -38.5t55 -16q50 0 71 38t21 111h137q0 -130 -59 -199t-170 -69zM436 1511l326 355l328 -355h-168l-160 181l-158 -181h-168zM764 -20 q-131 0 -240 38t-185 105t-128.5 159t-77 199t-24.5 226t24.5 226t77 199t128.5 159t185 105t240 38q162 0 289 -58t205.5 -159.5t118.5 -230.5t40 -279t-40 -279t-118.5 -230.5t-205.5 -159.5t-289 -58zM764 160q95 0 171 29.5t127.5 80t86 120.5t50 149t15.5 168 q0 112 -25.5 207.5t-77.5 173t-141 121.5t-206 44q-95 0 -171.5 -29t-128 -79.5t-86 -120.5t-50 -149t-15.5 -168t15.5 -168t50 -149t86 -120.5t128 -80t171.5 -29.5z" />
<glyph unicode="&#x1ed7;" d="M739 1550q-48 0 -89 15.5t-69.5 38t-54 45t-54 38t-58.5 15.5q-91 0 -88 -137h-129q0 121 55 190.5t158 69.5q53 0 96.5 -16t72 -39t53.5 -46t52 -39t55 -16q50 0 71 38.5t21 111.5h138q0 -130 -59.5 -199.5t-170.5 -69.5zM258 1098l326 354l327 -354h-168l-159 180 l-158 -180h-168zM584 -20q-216 0 -356 149.5t-140 366.5t140 366.5t356 149.5t355.5 -149.5t139.5 -366.5t-139.5 -366.5t-355.5 -149.5zM584 145q74 0 130.5 28.5t89 78.5t48.5 111t16 133t-16 133t-48.5 110.5t-89 78t-130.5 28.5t-130.5 -28.5t-89.5 -78t-49 -110.5 t-16 -133t16 -133t49 -111t89.5 -78.5t130.5 -28.5z" />
<glyph unicode="&#x1ef2;" horiz-adv-x="1337" d="M598 1532l-268 295h209l219 -295h-160zM569 0v553l-553 860h234l420 -674l417 674h234l-553 -860v-553h-199z" />
<glyph unicode="&#x1ef3;" horiz-adv-x="1019" d="M440 1118l-268 295h209l219 -295h-160zM244 -430l172 446l-385 983h209l274 -763l272 763h209l-551 -1429h-200z" />
<glyph unicode="&#x1ef8;" horiz-adv-x="1337" d="M825 1550q-48 0 -89 15.5t-69.5 38t-54 45t-54 38t-58.5 15.5q-91 0 -88 -137h-129q0 121 55 190.5t158 69.5q53 0 96.5 -16t72 -39t53.5 -46t52 -39t55 -16q93 0 93 150h137q0 -130 -59.5 -199.5t-170.5 -69.5zM569 0v553l-553 860h234l420 -674l417 674h234l-553 -860 v-553h-199z" />
<glyph unicode="&#x1ef9;" horiz-adv-x="1019" d="M666 1139q-48 0 -89 15.5t-69.5 37.5t-54.5 44.5t-54.5 38t-58.5 15.5q-91 0 -88 -137h-129q0 121 55 190.5t158 69.5q64 0 116.5 -24.5t81 -53.5t63.5 -53.5t69 -24.5q50 0 71 38.5t21 111.5h137q0 -130 -59 -199t-170 -69zM244 -430l172 446l-385 983h209l274 -763 l272 763h209l-551 -1429h-200z" />
<glyph unicode="&#x2000;" horiz-adv-x="1120" />
<glyph unicode="&#x2001;" horiz-adv-x="2241" />
<glyph unicode="&#x2002;" horiz-adv-x="1120" />
<glyph unicode="&#x2003;" horiz-adv-x="2241" />
<glyph unicode="&#x2004;" horiz-adv-x="747" />
<glyph unicode="&#x2005;" horiz-adv-x="560" />
<glyph unicode="&#x2006;" horiz-adv-x="373" />
<glyph unicode="&#x2007;" horiz-adv-x="373" />
<glyph unicode="&#x2008;" horiz-adv-x="280" />
<glyph unicode="&#x2009;" horiz-adv-x="448" />
<glyph unicode="&#x200a;" horiz-adv-x="124" />
<glyph unicode="&#x2010;" horiz-adv-x="890" d="M174 584v143h543v-143h-543z" />
<glyph unicode="&#x2011;" horiz-adv-x="890" d="M174 584v143h543v-143h-543z" />
<glyph unicode="&#x2012;" horiz-adv-x="890" d="M174 584v143h543v-143h-543z" />
<glyph unicode="&#x2013;" horiz-adv-x="849" d="M61 549v143h727v-143h-727z" />
<glyph unicode="&#x2014;" horiz-adv-x="1341" d="M-20 549v143h1382v-143h-1382z" />
<glyph unicode="&#x2015;" horiz-adv-x="1341" d="M61 549v143h1219v-143h-1219z" />
<glyph unicode="&#x2018;" horiz-adv-x="405" d="M209 897l-236 516h230l127 -516h-121z" />
<glyph unicode="&#x2019;" horiz-adv-x="409" d="M80 897l127 516h229l-235 -516h-121z" />
<glyph unicode="&#x201a;" horiz-adv-x="409" d="M84 -225l125 489h221l-231 -489h-115z" />
<glyph unicode="&#x201c;" horiz-adv-x="784" d="M287 897l-234 516h230l127 -516h-123zM608 897l-233 516h227l129 -516h-123z" />
<glyph unicode="&#x201d;" horiz-adv-x="729" d="M80 897l127 516h229l-235 -516h-121zM399 897l129 516h228l-234 -516h-123z" />
<glyph unicode="&#x201e;" horiz-adv-x="716" d="M84 -225l125 489h221l-231 -489h-115zM391 -225l125 489h221l-231 -489h-115z" />
<glyph unicode="&#x2020;" horiz-adv-x="806" d="M313 -205v1034h-221v181h221v403h181v-403h221v-181h-221v-1034h-181z" />
<glyph unicode="&#x2021;" horiz-adv-x="806" d="M313 -205v404h-221v180h221v450h-221v181h221v403h181v-403h221v-181h-221v-450h221v-180h-221v-404h-181z" />
<glyph unicode="&#x2022;" horiz-adv-x="782" d="M391 244q-98 0 -167.5 69.5t-69.5 167.5t69.5 168t167.5 70t168 -70t70 -168t-70 -167.5t-168 -69.5z" />
<glyph unicode="&#x2025;" horiz-adv-x="827" d="M98 0v223h217v-223h-217zM512 0v223h217v-223h-217z" />
<glyph unicode="&#x2026;" horiz-adv-x="1241" d="M98 0v223h217v-223h-217zM512 0v223h217v-223h-217zM926 0v223h217v-223h-217z" />
<glyph unicode="&#x202f;" horiz-adv-x="448" />
<glyph unicode="&#x2030;" horiz-adv-x="2111" d="M356 788q-58 0 -105 21.5t-76 55t-48.5 78t-27 86.5t-7.5 83t7.5 83t26.5 86.5t47 78t74 55t103 21.5q65 0 116.5 -29t82.5 -76.5t47 -104t16 -116.5q0 -80 -26 -151t-86.5 -121t-143.5 -50zM293 -6l768 1433h164l-768 -1433h-164zM352 920q58 0 89.5 58t31.5 134 q0 77 -32 134t-91 57t-91 -57t-32 -134q0 -78 31.5 -135t93.5 -57zM1184 -4q-72 0 -126 32t-82.5 83.5t-42 104.5t-13.5 106q0 42 7.5 84.5t26.5 86.5t47 77.5t74 55t103 21.5q65 0 117 -29t82.5 -77t46.5 -104.5t16 -117.5q0 -59 -15.5 -115t-46 -103t-81 -76t-113.5 -29z M1794 -4q-58 0 -105 21.5t-75.5 55.5t-47.5 78.5t-26.5 86.5t-7.5 84t7 84t26 86.5t47 78t73.5 55t102.5 21.5q65 0 117.5 -29t83.5 -77t47 -105t16 -117q0 -59 -15.5 -115t-46 -103t-81.5 -76t-115 -29zM1182 127q56 0 87 59t31 136q0 79 -31.5 135.5t-90.5 56.5t-91 -56.5 t-32 -135.5t32.5 -137t94.5 -58zM1792 127q56 0 87.5 59.5t31.5 135.5q0 79 -32 135.5t-91 56.5t-90 -56.5t-31 -135.5q0 -80 31.5 -137.5t93.5 -57.5z" />
<glyph unicode="&#x2039;" horiz-adv-x="663" d="M526 172l-393 338l393 340v-182l-186 -158l186 -156v-182z" />
<glyph unicode="&#x203a;" horiz-adv-x="663" d="M137 172v182l187 156l-187 158v182l393 -340z" />
<glyph unicode="&#x2044;" horiz-adv-x="942" d="M-6 0l768 1413h186l-768 -1413h-186z" />
<glyph unicode="&#x205f;" horiz-adv-x="560" />
<glyph unicode="&#x20ac;" horiz-adv-x="1173" d="M705 -20q-204 0 -332.5 132t-173.5 351h-146l68 155h55q-2 31 -2 89q0 34 4 100h-125l68 158h80q23 104 64.5 188t103 148.5t147.5 99.5t189 35q237 0 382 -199l-133 -109q-86 115 -252 115q-125 0 -205.5 -74t-119.5 -204h526l-65 -158h-490q-4 -58 -4 -88q0 -34 4 -96 h555l-65 -158h-463q38 -138 121 -215.5t209 -77.5q160 0 245 117l125 -127q-144 -182 -370 -182z" />
<glyph unicode="&#x2122;" horiz-adv-x="1040" d="M184 877v438h-145v98h401v-98h-145v-438h-111zM512 877v536h117l127 -338l129 338h112v-536h-110v335l-90 -254h-80l-94 256v-337h-111z" />
<glyph unicode="&#x2202;" horiz-adv-x="1230" d="M520 -12q-190 0 -308 125.5t-118 324.5q0 170 72.5 310t207 222.5t304.5 82.5q148 0 240 -95q-20 150 -96 228t-195 76q-84 0 -141 -33t-95 -115l-176 47q51 128 159.5 198.5t258.5 70.5q244 0 360.5 -182t116.5 -517q0 -111 -20.5 -215t-66.5 -201t-113 -169 t-167.5 -115t-222.5 -43zM530 156q171 0 275 132t104 322q0 130 -63 204.5t-184 74.5q-113 0 -202.5 -68.5t-135 -171t-45.5 -215.5q0 -125 67 -201.5t184 -76.5z" />
<glyph unicode="&#x2206;" horiz-adv-x="1183" d="M23 0l569 1454l571 -1454h-1140zM264 164h658l-330 866z" />
<glyph unicode="&#x220f;" horiz-adv-x="1179" d="M174 0v1249h-82v164h995v-164h-81v-1249h-164v1249h-504v-1249h-164z" />
<glyph unicode="&#x2211;" horiz-adv-x="1191" d="M39 0v82l575 625l-575 624v82h1040v-164h-745l514 -542l-514 -543h745v-164h-1040z" />
<glyph unicode="&#x221a;" horiz-adv-x="1187" d="M502 -203l-269 764h-151v164h270l158 -502l457 1198l151 -57z" />
<glyph unicode="&#x221e;" horiz-adv-x="1802" d="M496 354q-176 0 -276.5 104.5t-100.5 276.5t100.5 276.5t276.5 104.5q109 0 215.5 -59.5t189.5 -167.5q83 108 190 167.5t216 59.5q176 0 276 -104.5t100 -276.5t-100 -276.5t-276 -104.5q-109 0 -216 60t-190 168q-83 -108 -189.5 -168t-215.5 -60zM526 510 q75 0 155 60.5t134 164.5q-54 103 -134.5 164.5t-154.5 61.5q-106 0 -168.5 -60t-62.5 -166t62.5 -165.5t168.5 -59.5zM1276 510q106 0 168.5 59.5t62.5 165.5t-62.5 166t-168.5 60q-75 0 -155 -61t-134 -165q54 -103 134.5 -164t154.5 -61z" />
<glyph unicode="&#x222b;" horiz-adv-x="690" d="M-106 -457v164q175 0 251 69t76 230v1143q0 130 81.5 214.5t199.5 84.5q117 0 211 -82l-107 -123q-49 41 -104 41q-49 0 -83 -34.5t-34 -102.5v-1143q0 -223 -131 -342t-360 -119z" />
<glyph unicode="&#x2248;" horiz-adv-x="954" d="M635 733q-59 0 -111 22.5t-83 49.5t-69 49.5t-71 22.5q-48 0 -65 -30t-15 -87h-129q0 117 53.5 181.5t153.5 64.5q56 0 103 -14.5t77.5 -35t56.5 -41t52.5 -35t52.5 -14.5q50 0 68 32.5t18 100.5h137q0 -129 -58.5 -197.5t-170.5 -68.5zM635 389q-59 0 -111 22.5t-83 49 t-69 49t-71 22.5q-47 0 -64.5 -30.5t-15.5 -85.5h-129q0 115 53.5 179t153.5 64q56 0 103 -14.5t77.5 -34.5t56.5 -40.5t52.5 -35t52.5 -14.5q50 0 68 32.5t18 102.5h137q0 -129 -58.5 -197.5t-170.5 -68.5z" />
<glyph unicode="&#x2260;" horiz-adv-x="1095" d="M84 0l227 420h-153v158h239l101 188h-340v158h426l264 489h178l-264 -489h176v-158h-262l-101 -188h363v-158h-449l-227 -420h-178z" />
<glyph unicode="&#x2264;" horiz-adv-x="1349" d="M1120 133l-934 522l934 521l82 -144l-704 -377l704 -379zM133 -143v143h1084v-143h-1084z" />
<glyph unicode="&#x2265;" horiz-adv-x="1349" d="M229 133l-82 143l705 379l-705 377l82 144l934 -521zM133 -143v143h1084v-143h-1084z" />
<glyph unicode="&#x25ca;" horiz-adv-x="1183" d="M502 0l-375 717l375 717h180l375 -717l-375 -717h-180zM592 182l268 535l-268 534l-268 -534z" />
<glyph unicode="&#x25fc;" horiz-adv-x="1003" d="M0 1004h1004v-1004h-1004v1004z" />
<glyph unicode="&#xfb03;" horiz-adv-x="1626" d="M180 0v834h-151v165h153v99q0 152 107 244t264 92q179 0 299 -109q53 52 134 80.5t161 28.5q167 0 334 -119l-99 -144l-8 8q-9 8 -18 15.5t-24.5 18.5t-33.5 20t-40 17.5t-49 13t-56 4.5q-96 0 -152.5 -47.5t-56.5 -126.5v-95h553v-999h-178v834h-375v-834h-188v834h-389 v-834h-187zM367 999h391v99q0 48 6 86q-79 84 -199 84q-94 0 -146 -47.5t-52 -126.5v-95z" />
<glyph unicode="&#xfb04;" horiz-adv-x="1636" d="M1473 -20q-80 0 -123 45.5t-43 134.5v1046q-58 62 -168 62q-86 0 -141.5 -45.5t-55.5 -124.5v-99h168v-165h-168v-834h-188v834h-396v-834h-188v834h-150v165h152v107q0 154 106.5 241t268.5 87q168 0 299 -107q110 107 309 107q110 0 186 -37t146 -107v-1075 q0 -34 12 -47.5t43 -13.5q15 0 31.5 2t25.5 4l9 2v-162q-78 -20 -135 -20zM358 999h398q0 136 6 179q-78 90 -205 90q-94 0 -146.5 -47t-52.5 -125v-97z" />
</font>
</defs>
</svg>
